<svg width="100" height="100" viewBox="0 0 100 100" fill="none" xmlns="http://www.w3.org/2000/svg">
<rect width="100" height="100" fill="none"/>
<path d="M85.5392 25H14.5C13.3069 25.0046 12.1639 25.4807 11.3202 26.3244C10.4765 27.1681 10.0006 28.3111 9.99602 29.5042L9.996 70.4958C9.9983 71.6896 10.4735 72.834 11.3177 73.6781C12.1618 74.5223 13.3061 74.9977 14.5 75H46.3335V79.0632H35.2252C34.88 79.0632 34.5488 79.2004 34.3046 79.4445C34.0605 79.6887 33.9235 80.0197 33.9235 80.3649C33.9235 80.7102 34.0605 81.0412 34.3046 81.2853C34.5488 81.5294 34.88 81.6667 35.2252 81.6667H64.7314C65.0767 81.6667 65.4077 81.5294 65.6518 81.2853C65.8959 81.0412 66.0332 80.7102 66.0332 80.3649C66.0332 80.0197 65.8959 79.6887 65.6518 79.4445C65.4077 79.2004 65.0767 79.0632 64.7314 79.0632H53.6232V75H85.496C86.6905 75 87.836 74.5253 88.6807 73.6807C89.5253 72.836 90 71.6903 90 70.4958L90 29.5042C89.9978 28.3178 89.5284 27.1799 88.6936 26.3369C87.8588 25.494 86.7255 25.0137 85.5392 25ZM51.0544 79.0632H48.9455V75H51.0544V79.0632ZM87.4399 70.4958C87.4399 70.7454 87.3907 70.9926 87.2952 71.2232C87.1997 71.4537 87.0596 71.6632 86.8831 71.8397C86.7066 72.0162 86.4972 72.1563 86.2666 72.2518C86.036 72.3473 85.7888 72.3965 85.5392 72.3965H14.5C14.2504 72.3965 14.0032 72.3473 13.7726 72.2518C13.542 72.1563 13.3326 72.0162 13.1561 71.8397C12.9796 71.6632 12.8395 71.4537 12.744 71.2232C12.6485 70.9926 12.5995 70.7454 12.5995 70.4958L12.5995 29.5042C12.5995 29.2546 12.6485 29.0074 12.744 28.7768C12.8395 28.5463 12.9796 28.3368 13.1561 28.1603C13.3326 27.9838 13.5421 27.8437 13.7726 27.7482C14.0032 27.6527 14.2504 27.6035 14.5 27.6035H85.5392C85.7888 27.6035 86.036 27.6527 86.2666 27.7482C86.4972 27.8437 86.7067 27.9838 86.8831 28.1603C87.0596 28.3368 87.1997 28.5463 87.2952 28.7768C87.3907 29.0074 87.4399 29.2546 87.4399 29.5042L87.4399 70.4958Z" fill="#3C3C3B"/>
</svg>
