<svg width="100" height="100" viewBox="0 0 100 100" fill="none" xmlns="http://www.w3.org/2000/svg">
<rect width="100" height="100" fill="none"/>
<path d="M79.9052 33.073C79.9007 32.0386 79.4878 31.0481 78.7565 30.3167C78.0251 29.5853 77.0343 29.1723 76 29.1677H24C22.9642 29.17 21.9713 29.5819 21.238 30.3135C20.5048 31.0452 20.0907 32.0371 20.0861 33.073V40.8834C20.7411 41.5922 21.105 42.3951 21.105 43.4869C21.105 44.5787 20.7411 45.3817 20.0861 46.0904V53.9009C20.0861 53.9009 21.105 55 21.1101 56.5044C21.1151 58.0087 20.0861 59.1079 20.0861 59.1079V66.9183C20.0929 67.9534 20.5078 68.9441 21.2406 69.6752C21.9733 70.4064 22.9649 70.819 24 70.8236H76C77.0336 70.8167 78.023 70.4031 78.7539 69.6722C79.4848 68.9413 79.8984 67.952 79.9052 66.9183V59.1079C79.2521 58.3982 78.8895 57.4689 78.8895 56.5044C78.8895 55.5399 79.2521 54.6106 79.9052 53.9009V46.0904C79.2539 45.3798 78.8927 44.4509 78.8927 43.4869C78.8927 42.523 79.2539 41.594 79.9052 40.8834V33.073ZM77.3017 66.9183C77.3017 67.2636 77.1645 67.5948 76.9204 67.8389C76.6762 68.083 76.3452 68.2201 76 68.2201H24C23.6548 68.2201 23.3238 68.083 23.0796 67.8389C22.8355 67.5948 22.6983 67.2636 22.6983 66.9183V59.1079C22.6983 58.7626 22.8355 58.4316 23.0796 58.1875C23.3238 57.9434 23.6548 57.8061 24 57.8061H76C76.3452 57.8061 76.6762 57.9434 76.9204 58.1875C77.1645 58.4316 77.3017 58.7626 77.3017 59.1079V66.9183ZM77.3017 53.9009C77.3017 54.2461 77.1645 54.5773 76.9204 54.8215C76.6762 55.0656 76.3452 55.2026 76 55.2026H24C23.6548 55.2026 23.3238 55.0656 23.0796 54.8215C22.8355 54.5773 22.6983 54.2461 22.6983 53.9009V46.0904C22.6982 45.7444 22.8351 45.4124 23.079 45.1669C23.3229 44.9214 23.654 44.7823 24 44.78H76C76.346 44.7823 76.6771 44.9214 76.921 45.1669C77.1649 45.4124 77.3017 45.7444 77.3017 46.0904V53.9009ZM77.3017 40.8834C77.3017 41.2287 77.1645 41.5599 76.9204 41.804C76.6762 42.0481 76.3452 42.1852 76 42.1852H24C23.6548 42.1852 23.3238 42.0481 23.0796 41.804C22.8355 41.5599 22.6983 41.2287 22.6983 40.8834V33.073C22.6983 32.7277 22.8355 32.3967 23.0796 32.1526C23.3238 31.9085 23.6548 31.7712 24 31.7712H76C76.3452 31.7712 76.6762 31.9085 76.9204 32.1526C77.1645 32.3967 77.3017 32.7277 77.3017 33.073V40.8834Z" fill="#3C3C3B"/>
<path d="M29.1686 34.8086C28.5934 34.8086 28.0418 35.0372 27.6351 35.4439C27.2284 35.8506 27 36.402 27 36.9771C27 37.5523 27.2284 38.1039 27.6351 38.5106C28.0418 38.9173 28.5934 39.1457 29.1686 39.1457C29.7437 39.1457 30.2953 38.9173 30.702 38.5106C31.1087 38.1039 31.3371 37.5523 31.3371 36.9771C31.3371 36.402 31.1087 35.8506 30.702 35.4439C30.2953 35.0372 29.7437 34.8086 29.1686 34.8086Z" fill="#3C3C3B"/>
<path d="M35.6946 34.8086C35.1195 34.8086 34.5678 35.0372 34.1612 35.4439C33.7545 35.8506 33.526 36.402 33.526 36.9771C33.526 37.5523 33.7545 38.1039 34.1612 38.5106C34.5678 38.9173 35.1195 39.1457 35.6946 39.1457C36.2698 39.1457 36.8214 38.9173 37.2281 38.5106C37.6348 38.1039 37.8632 37.5523 37.8632 36.9771C37.8632 36.402 37.6348 35.8506 37.2281 35.4439C36.8214 35.0372 36.2698 34.8086 35.6946 34.8086Z" fill="#3C3C3B"/>
<path d="M29.1686 47.8347C28.5934 47.8347 28.0418 48.0634 27.6351 48.47C27.2284 48.8767 27 49.4281 27 50.0033C27 50.5784 27.2284 51.1301 27.6351 51.5367C28.0418 51.9434 28.5934 52.1719 29.1686 52.1719C29.7437 52.1719 30.2953 51.9434 30.702 51.5367C31.1087 51.1301 31.3371 50.5784 31.3371 50.0033C31.3371 49.4281 31.1087 48.8767 30.702 48.47C30.2953 48.0634 29.7437 47.8347 29.1686 47.8347Z" fill="#3C3C3B"/>
<path d="M35.6946 47.8347C35.1195 47.8347 34.5678 48.0634 34.1612 48.47C33.7545 48.8767 33.526 49.4281 33.526 50.0033C33.526 50.5784 33.7545 51.1301 34.1612 51.5367C34.5678 51.9434 35.1195 52.1719 35.6946 52.1719C36.2698 52.1719 36.8214 51.9434 37.2281 51.5367C37.6348 51.1301 37.8632 50.5784 37.8632 50.0033C37.8632 49.4281 37.6348 48.8767 37.2281 48.47C36.8214 48.0634 36.2698 47.8347 35.6946 47.8347Z" fill="#3C3C3B"/>
<path d="M29.1686 60.8522C28.5934 60.8522 28.0418 61.0808 27.6351 61.4875C27.2284 61.8942 27 62.4456 27 63.0208C26.9989 63.3059 27.0543 63.5884 27.1629 63.852C27.2714 64.1156 27.431 64.3552 27.6326 64.5568C27.8342 64.7584 28.0738 64.9181 28.3374 65.0267C28.601 65.1353 28.8835 65.1905 29.1686 65.1894V65.1894C29.4537 65.1905 29.7362 65.1353 29.9998 65.0267C30.2634 64.9181 30.503 64.7584 30.7046 64.5568C30.9062 64.3552 31.0659 64.1156 31.1745 63.852C31.2831 63.5884 31.3383 63.3059 31.3372 63.0208C31.3372 62.4456 31.1087 61.8942 30.702 61.4875C30.2954 61.0808 29.7437 60.8522 29.1686 60.8522Z" fill="#3C3C3B"/>
<path d="M35.6946 60.8522C35.1195 60.8522 34.5679 61.0808 34.1612 61.4875C33.7545 61.8942 33.5261 62.4456 33.5261 63.0208C33.5249 63.3059 33.5801 63.5884 33.6887 63.852C33.7973 64.1156 33.957 64.3552 34.1586 64.5568C34.3602 64.7584 34.5998 64.9181 34.8634 65.0267C35.127 65.1353 35.4095 65.1905 35.6946 65.1894V65.1894C35.9797 65.1905 36.2622 65.1353 36.5258 65.0267C36.7895 64.9181 37.029 64.7584 37.2306 64.5568C37.4322 64.3552 37.592 64.1156 37.7006 63.852C37.8091 63.5884 37.8643 63.3059 37.8632 63.0208C37.8632 62.4456 37.6348 61.8942 37.2281 61.4875C36.8214 61.0808 36.2698 60.8522 35.6946 60.8522Z" fill="#3C3C3B"/>
</svg>
