<svg width="100" height="100" viewBox="0 0 100 100" fill="none" xmlns="http://www.w3.org/2000/svg">
<rect width="100" height="100" fill="none"/>
<path d="M87.5309 60.4876C85.469 58.4234 82.7551 57.138 79.8518 56.8506C76.9485 56.5632 74.0353 57.2915 71.6087 58.9113C69.1822 60.5311 67.3923 62.9424 66.5443 65.734C65.6963 68.5255 65.8427 71.5247 66.9583 74.2205C68.0739 76.9163 70.0897 79.142 72.6624 80.518C75.235 81.894 78.2053 82.3353 81.0669 81.7668C83.9285 81.1982 86.5045 79.6548 88.3557 77.3999C90.2069 75.1449 91.2189 72.3177 91.2192 69.4002C91.2217 67.7449 90.8972 66.1054 90.2643 64.5759C89.6313 63.0464 88.7024 61.657 87.5309 60.4876V60.4876ZM71.693 62.475C71.9637 62.192 72.2537 61.928 72.5609 61.6851C71.6872 63.6815 71.1788 65.8183 71.0595 67.9942H68.9073C69.2183 65.9028 70.1952 63.9674 71.693 62.475V62.475ZM71.693 76.3602C70.2039 74.8602 69.2338 72.923 68.9247 70.832H71.0769C71.1948 73.0081 71.7034 75.1452 72.5782 77.1412C72.2649 76.8865 71.9665 76.6142 71.6844 76.3255L71.693 76.3602ZM77.221 78.7554C76.4939 78.2033 75.9007 77.4942 75.4853 76.6812C74.555 74.8631 74.0142 72.871 73.8974 70.832H77.2297L77.221 78.7554ZM77.221 68.029H73.8887C74.0054 65.9928 74.5462 64.0035 75.4766 62.1885C75.892 61.3755 76.4852 60.6667 77.2123 60.1145L77.221 68.029ZM85.5522 62.5097C87.0473 64.0019 88.0186 65.9383 88.3205 68.029H86.1857C86.0697 65.8564 85.5641 63.7223 84.6931 61.7285C84.9896 61.962 85.2735 62.2113 85.5435 62.475L85.5522 62.5097ZM81.7684 76.6812C81.3556 77.4959 80.7619 78.2055 80.0327 78.7554V70.832H83.3653C83.2405 72.8608 82.6936 74.8413 81.7597 76.6467L81.7684 76.6812ZM80.0327 68.0029V60.0884C80.7658 60.6342 81.3604 61.3446 81.7684 62.1624C82.701 63.9766 83.2421 65.9663 83.3566 68.0029H80.0327ZM85.5609 76.3341C85.2862 76.6102 84.9965 76.8708 84.6931 77.1151C85.5637 75.1182 86.0693 72.9813 86.1857 70.806H88.3379C88.027 72.8993 87.0466 74.8357 85.5435 76.3255L85.5609 76.3341Z" fill="#3C3C3B"/>
<path fill-rule="evenodd" clip-rule="evenodd" d="M78.7565 30.3167C79.4878 31.0481 79.9007 32.0386 79.9052 33.073V40.8834C79.2539 41.594 78.8927 42.523 78.8927 43.4869C78.8927 44.4509 79.2539 45.3798 79.9052 46.0904V53.059C79.442 53.0199 78.9733 53 78.5 53C78.097 53 77.6975 53.0144 77.3017 53.0428V46.0904C77.3017 45.7444 77.1649 45.4124 76.921 45.1669C76.6771 44.9214 76.346 44.7823 76 44.78H24C23.654 44.7823 23.3229 44.9214 23.079 45.1669C22.8351 45.4124 22.6982 45.7444 22.6983 46.0904V53.9009C22.6983 54.2461 22.8355 54.5773 23.0796 54.8215C23.3237 55.0656 23.6548 55.2026 24 55.2026H70.2583C69.0135 55.9217 67.8715 56.7987 66.8594 57.8061H24C23.6548 57.8061 23.3237 57.9434 23.0796 58.1875C22.8355 58.4316 22.6983 58.7626 22.6983 59.1079V66.9183C22.6983 67.2636 22.8355 67.5948 23.0796 67.8389C23.3237 68.083 23.6548 68.2201 24 68.2201H62.0489C62.0165 68.6425 62 69.0693 62 69.5C62 69.9455 62.0177 70.3869 62.0523 70.8236H24C22.9649 70.819 21.9733 70.4064 21.2406 69.6752C20.5078 68.9441 20.0929 67.9534 20.0861 66.9183V59.1079C20.0861 59.1079 21.1151 58.0087 21.1101 56.5044C21.105 55 20.0861 53.9009 20.0861 53.9009V46.0904C20.7411 45.3817 21.105 44.5787 21.105 43.4869C21.105 42.3951 20.7411 41.5922 20.0861 40.8834V33.073C20.0907 32.0371 20.5048 31.0452 21.238 30.3135C21.9713 29.5819 22.9642 29.17 24 29.1677H76C77.0343 29.1723 78.0251 29.5853 78.7565 30.3167ZM76.9204 41.804C77.1645 41.5599 77.3017 41.2287 77.3017 40.8834V33.073C77.3017 32.7277 77.1645 32.3967 76.9204 32.1526C76.6762 31.9085 76.3452 31.7712 76 31.7712H24C23.6548 31.7712 23.3237 31.9085 23.0796 32.1526C22.8355 32.3967 22.6983 32.7277 22.6983 33.073V40.8834C22.6983 41.2287 22.8355 41.5599 23.0796 41.804C23.3237 42.0481 23.6548 42.1852 24 42.1852H76C76.3452 42.1852 76.6762 42.0481 76.9204 41.804Z" fill="#3C3C3B"/>
<path d="M29.1686 34.8086C28.5934 34.8086 28.0418 35.0372 27.6351 35.4439C27.2284 35.8506 27 36.402 27 36.9771C27 37.5523 27.2284 38.1039 27.6351 38.5106C28.0418 38.9173 28.5934 39.1457 29.1686 39.1457C29.7437 39.1457 30.2953 38.9173 30.702 38.5106C31.1087 38.1039 31.3371 37.5523 31.3371 36.9771C31.3371 36.402 31.1087 35.8506 30.702 35.4439C30.2953 35.0372 29.7437 34.8086 29.1686 34.8086Z" fill="#3C3C3B"/>
<path d="M35.6946 34.8086C35.1195 34.8086 34.5678 35.0372 34.1612 35.4439C33.7545 35.8506 33.526 36.402 33.526 36.9771C33.526 37.5523 33.7545 38.1039 34.1612 38.5106C34.5678 38.9173 35.1195 39.1457 35.6946 39.1457C36.2698 39.1457 36.8214 38.9173 37.2281 38.5106C37.6348 38.1039 37.8632 37.5523 37.8632 36.9771C37.8632 36.402 37.6348 35.8506 37.2281 35.4439C36.8214 35.0372 36.2698 34.8086 35.6946 34.8086Z" fill="#3C3C3B"/>
<path d="M29.1686 47.8347C28.5934 47.8347 28.0418 48.0634 27.6351 48.47C27.2284 48.8767 27 49.4281 27 50.0033C27 50.5784 27.2284 51.1301 27.6351 51.5367C28.0418 51.9434 28.5934 52.1719 29.1686 52.1719C29.7437 52.1719 30.2953 51.9434 30.702 51.5367C31.1087 51.1301 31.3371 50.5784 31.3371 50.0033C31.3371 49.4281 31.1087 48.8767 30.702 48.47C30.2953 48.0634 29.7437 47.8347 29.1686 47.8347Z" fill="#3C3C3B"/>
<path d="M35.6946 47.8347C35.1195 47.8347 34.5678 48.0634 34.1612 48.47C33.7545 48.8767 33.526 49.4281 33.526 50.0033C33.526 50.5784 33.7545 51.1301 34.1612 51.5367C34.5678 51.9434 35.1195 52.1719 35.6946 52.1719C36.2698 52.1719 36.8214 51.9434 37.2281 51.5367C37.6348 51.1301 37.8632 50.5784 37.8632 50.0033C37.8632 49.4281 37.6348 48.8767 37.2281 48.47C36.8214 48.0634 36.2698 47.8347 35.6946 47.8347Z" fill="#3C3C3B"/>
<path d="M29.1686 60.8522C28.5934 60.8522 28.0418 61.0808 27.6351 61.4875C27.2284 61.8942 27 62.4456 27 63.0208C26.9989 63.3059 27.0543 63.5884 27.1629 63.852C27.2714 64.1156 27.431 64.3552 27.6326 64.5568C27.8342 64.7584 28.0738 64.9181 28.3374 65.0267C28.601 65.1353 28.8835 65.1905 29.1686 65.1894V65.1894C29.4537 65.1905 29.7362 65.1353 29.9998 65.0267C30.2634 64.9181 30.503 64.7584 30.7046 64.5568C30.9062 64.3552 31.0659 64.1156 31.1745 63.852C31.2831 63.5884 31.3383 63.3059 31.3372 63.0208C31.3372 62.4456 31.1087 61.8942 30.702 61.4875C30.2954 61.0808 29.7437 60.8522 29.1686 60.8522Z" fill="#3C3C3B"/>
<path d="M35.6946 60.8522C35.1195 60.8522 34.5679 61.0808 34.1612 61.4875C33.7545 61.8942 33.5261 62.4456 33.5261 63.0208C33.5249 63.3059 33.5801 63.5884 33.6887 63.852C33.7973 64.1156 33.957 64.3552 34.1586 64.5568C34.3602 64.7584 34.5998 64.9181 34.8634 65.0267C35.127 65.1353 35.4095 65.1905 35.6946 65.1894V65.1894C35.9797 65.1905 36.2622 65.1353 36.5259 65.0267C36.7895 64.9181 37.029 64.7584 37.2306 64.5568C37.4322 64.3552 37.592 64.1156 37.7006 63.852C37.8091 63.5884 37.8644 63.3059 37.8632 63.0208C37.8632 62.4456 37.6348 61.8942 37.2281 61.4875C36.8214 61.0808 36.2698 60.8522 35.6946 60.8522Z" fill="#3C3C3B"/>
</svg>
