<svg width="100" height="100" viewBox="0 0 100 100" fill="none" xmlns="http://www.w3.org/2000/svg">
<rect width="100" height="100" fill="none"/>
<path d="M64.3149 43.4956C64.3149 39.6979 62.8063 36.0558 60.1209 33.3704C57.4356 30.685 53.7934 29.1764 49.9958 29.1764C46.1981 29.1764 42.5557 30.685 39.8704 33.3704C37.185 36.0558 35.6766 39.6979 35.6766 43.4956V48.7026H38.2801V43.4956C38.2801 40.3884 39.5142 37.4085 41.7113 35.2114C43.9085 33.0142 46.8886 31.7799 49.9958 31.7799C53.103 31.7799 56.0828 33.0142 58.28 35.2114C60.4771 37.4085 61.7115 40.3884 61.7115 43.4956V56.513C61.7115 59.6202 60.4771 62.6001 58.28 64.7972C56.0828 66.9944 53.103 68.2287 49.9958 68.2287C46.8886 68.2287 43.9085 66.9944 41.7113 64.7972C39.5142 62.6001 38.2801 59.6202 38.2801 56.513H35.6766C35.6766 60.3107 37.185 63.9528 39.8704 66.6382C42.5557 69.3236 46.1981 70.8322 49.9958 70.8322C53.7934 70.8322 57.4356 69.3236 60.1209 66.6382C62.8063 63.9528 64.3149 60.3107 64.3149 56.513V43.4956Z" fill="#3C3C3B"/>
<path d="M40.8922 43.4958V56.5132C40.8922 58.9299 41.8521 61.2476 43.561 62.9565C45.2698 64.6653 47.5877 65.6254 50.0044 65.6254C52.4211 65.6254 54.7388 64.6653 56.4477 62.9565C58.1566 61.2476 59.1166 58.9299 59.1166 56.5132V46.0992H56.5132V56.5132C56.5132 58.2394 55.8274 59.8949 54.6067 61.1155C53.3861 62.3361 51.7307 63.0219 50.0044 63.0219C48.2782 63.0219 46.6226 62.3361 45.4019 61.1155C44.1813 59.8949 43.4957 58.2394 43.4957 56.5132V43.4958C43.4946 42.6414 43.6618 41.7952 43.9879 41.0056C44.314 40.216 44.7927 39.4984 45.3964 38.8939C46.0001 38.2894 46.7171 37.8098 47.5063 37.4826C48.2954 37.1554 49.1414 36.987 49.9958 36.987V34.3835C47.5805 34.3858 45.265 35.3468 43.558 37.0555C41.851 38.7641 40.8922 41.0806 40.8922 43.4958V43.4958Z" fill="#3C3C3B"/>
<path d="M49.9958 56.5044V59.1078C51.0315 59.1078 52.0247 58.6963 52.7571 57.9639C53.4895 57.2316 53.901 56.2383 53.901 55.2026V44.7887C53.901 43.7529 53.4895 42.7595 52.7571 42.0271C52.0247 41.2947 51.0315 40.8834 49.9958 40.8834C48.96 40.8834 47.9666 41.2947 47.2342 42.0271C46.5018 42.7595 46.0905 43.7529 46.0905 44.7887V55.2026H48.694V44.7887C48.694 44.4434 48.8311 44.1122 49.0752 43.8681C49.3193 43.6239 49.6505 43.4869 49.9958 43.4869C50.341 43.4869 50.672 43.6239 50.9161 43.8681C51.1603 44.1122 51.2975 44.4434 51.2975 44.7887V55.2026C51.2975 55.5479 51.1603 55.8789 50.9161 56.123C50.672 56.3671 50.341 56.5044 49.9958 56.5044Z" fill="#3C3C3B"/>
<path d="M38.2886 51.2972H35.6852V53.9007H38.2886V51.2972Z" fill="#3C3C3B"/>
<path d="M59.1079 40.892H56.5044V43.4955H59.1079V40.892Z" fill="#3C3C3B"/>
<path d="M25.9052 22C24.8702 22.0023 23.8781 22.4144 23.1462 23.1462C22.4144 23.8781 22.0023 24.8702 22 25.9052V41.0923H24.6035V25.9052C24.6035 25.56 24.7405 25.2288 24.9846 24.9846C25.2288 24.7405 25.56 24.6035 25.9052 24.6035H41.0923V22H25.9052Z" fill="#3C3C3B"/>
<path d="M78.0923 25.9052C78.09 24.8702 77.6777 23.8781 76.9458 23.1462C76.2139 22.4144 75.2221 22.0023 74.187 22H59V24.6035H74.187C74.5323 24.6035 74.8633 24.7405 75.1074 24.9846C75.3515 25.2288 75.4888 25.56 75.4888 25.9052V41.0923H78.0923V25.9052Z" fill="#3C3C3B"/>
<path d="M74.187 78.0836C75.2213 78.0836 76.2131 77.6733 76.9452 76.9428C77.6773 76.2123 78.09 75.2212 78.0923 74.187V59H75.4888V74.187C75.4865 74.5308 75.3483 74.8596 75.1044 75.1019C74.8606 75.3441 74.5308 75.4801 74.187 75.4801H59V78.0836H74.187Z" fill="#3C3C3B"/>
<path d="M22 74.187C22.0023 75.2212 22.4147 76.2123 23.1469 76.9428C23.879 77.6733 24.871 78.0836 25.9052 78.0836H41.0923V75.4801H25.9052C25.5615 75.4801 25.2315 75.3441 24.9876 75.1019C24.7437 74.8596 24.6058 74.5308 24.6035 74.187V59H22V74.187Z" fill="#3C3C3B"/>
</svg>
