<svg width="100" height="100" viewBox="0 0 100 100" fill="none" xmlns="http://www.w3.org/2000/svg">
<rect width="100" height="100" fill="none"/>
<path d="M59.1667 37.7055C59.859 37.7055 60.5356 37.6338 61.1889 37.4971C61.9669 40.9554 65.0567 43.5388 68.75 43.5388C70.0417 43.5388 71.2607 43.222 72.3323 42.6626C73.0898 44.9698 73.5 47.4358 73.5 50C73.5 62.9787 62.9787 73.5 50 73.5C37.0213 73.5 26.5 62.9787 26.5 50C26.5 37.2127 36.7133 26.8108 49.4275 26.5068C49.3654 26.9535 49.3333 27.4094 49.3333 27.8722C49.3333 33.303 53.7359 37.7055 59.1667 37.7055Z" stroke="#3C3C3B" stroke-width="3" stroke-linejoin="round"/>
<circle cx="39.3333" cy="48.8722" r="4.5" stroke="#3C3C3B" stroke-width="3"/>
<circle cx="54.5" cy="61.5" r="3" stroke="#3C3C3B" stroke-width="3"/>
<circle cx="53.0757" cy="47.4631" r="1.5" stroke="#3C3C3B" stroke-width="3" stroke-linejoin="round"/>
<circle cx="64.6667" cy="53.2964" r="1.5" stroke="#3C3C3B" stroke-width="3" stroke-linejoin="round"/>
<circle cx="41.6364" cy="61.6364" r="1.5" stroke="#3C3C3B" stroke-width="3" stroke-linejoin="round"/>
</svg>
