<svg width="100" height="100" viewBox="0 0 100 100" fill="none" xmlns="http://www.w3.org/2000/svg">
<rect width="100" height="100" fill="none"/>
<path d="M80.79 45.4232L71.3899 38.1832V21.5133C71.3899 19.8743 70.7388 18.3024 69.5798 17.1434C68.4209 15.9845 66.849 15.3334 65.21 15.3334H34.1799C32.5417 15.336 30.9714 15.988 29.813 17.1464C28.6546 18.3048 28.0026 19.8751 28 21.5133V38.2032C27.9246 38.2394 27.8512 38.2795 27.78 38.3234L18.5999 45.4232C18.4172 45.5685 18.2687 45.7524 18.165 45.9615C18.0613 46.1707 18.0051 46.4001 18 46.6334V76.8134C18.0053 78.4508 18.6581 80.0195 19.8159 81.1774C20.9738 82.3352 22.5425 82.988 24.1799 82.9933H75.1799C76.8182 82.9906 78.3885 82.3387 79.5469 81.1803C80.7053 80.0219 81.3572 78.4516 81.3599 76.8134V46.6334C81.3627 46.4017 81.3129 46.1724 81.2141 45.9628C81.1154 45.7532 80.9705 45.5686 80.79 45.4232V45.4232ZM71.3799 42.0433L77.3799 46.6334L71.3799 51.2433V42.0433ZM31.03 48.6432V21.5133C31.03 20.6902 31.3562 19.9007 31.9373 19.3177C32.5183 18.7348 33.3068 18.4058 34.1299 18.4032H65.1799C65.5883 18.4032 65.9928 18.4837 66.3701 18.64C66.7474 18.7963 67.0904 19.0253 67.3792 19.3141C67.6679 19.6029 67.8969 19.9458 68.0532 20.3231C68.2095 20.7004 68.29 21.1049 68.29 21.5133V53.6034L49.6499 67.9132L31.01 53.5734L31.03 48.6432ZM27.95 42.0634V51.2032L22 46.6234L27.95 42.0634ZM78.3098 76.8134C78.3098 77.2213 78.2294 77.6251 78.073 78.0018C77.9166 78.3786 77.6874 78.7209 77.3984 79.0089C77.1095 79.2969 76.7667 79.5251 76.3894 79.6803C76.0121 79.8355 75.6079 79.9145 75.2 79.9132H24.1799C23.3578 79.9132 22.5692 79.5866 21.9878 79.0052C21.4064 78.4239 21.0798 77.6355 21.0798 76.8134V49.6832L48.78 70.9933C49.0508 71.1977 49.3807 71.3082 49.72 71.3082C50.0592 71.3082 50.3892 71.1977 50.6599 70.9933L78.3599 49.6832L78.3098 76.8134Z" fill="#3C3C3B"/>
<path d="M37.23 26.6034H42.1799C42.5778 26.6034 42.9592 26.4452 43.2405 26.1639C43.5218 25.8826 43.6799 25.5012 43.6799 25.1034C43.6799 24.7056 43.5218 24.3239 43.2405 24.0426C42.9592 23.7613 42.5778 23.6034 42.1799 23.6034H37.25C36.8522 23.6034 36.4705 23.7613 36.1892 24.0426C35.9079 24.3239 35.75 24.7056 35.75 25.1034C35.75 25.5012 35.9079 25.8826 36.1892 26.1639C36.4705 26.4452 36.8522 26.6034 37.25 26.6034H37.23Z" fill="#3C3C3B"/>
<path d="M41.0798 33.1034C41.0798 33.5012 41.238 33.8826 41.5193 34.1639C41.8006 34.4452 42.182 34.6034 42.5798 34.6034H62.1099C62.5077 34.6034 62.8893 34.4452 63.1707 34.1639C63.452 33.8826 63.6099 33.5012 63.6099 33.1034C63.6099 32.7056 63.452 32.3239 63.1707 32.0426C62.8893 31.7613 62.5077 31.6034 62.1099 31.6034H42.5798C42.182 31.6034 41.8006 31.7613 41.5193 32.0426C41.238 32.3239 41.0798 32.7056 41.0798 33.1034V33.1034Z" fill="#3C3C3B"/>
<path d="M37.23 42.6034H62.1099C62.5077 42.6034 62.8893 42.4452 63.1707 42.1639C63.452 41.8826 63.6099 41.5012 63.6099 41.1034C63.6099 40.7056 63.452 40.3239 63.1707 40.0426C62.8893 39.7613 62.5077 39.6034 62.1099 39.6034H37.23C36.8322 39.6034 36.4505 39.7613 36.1692 40.0426C35.8879 40.3239 35.73 40.7056 35.73 41.1034C35.73 41.5012 35.8879 41.8826 36.1692 42.1639C36.4505 42.4452 36.8322 42.6034 37.23 42.6034Z" fill="#3C3C3B"/>
<path d="M63.6099 49.1034C63.6099 48.7056 63.452 48.3239 63.1707 48.0426C62.8893 47.7613 62.5077 47.6034 62.1099 47.6034H37.23C36.8322 47.6034 36.4505 47.7613 36.1692 48.0426C35.8879 48.3239 35.73 48.7056 35.73 49.1034C35.73 49.5012 35.8879 49.8826 36.1692 50.1639C36.4505 50.4452 36.8322 50.6034 37.23 50.6034H62.1099C62.5077 50.6034 62.8893 50.4452 63.1707 50.1639C63.452 49.8826 63.6099 49.5012 63.6099 49.1034Z" fill="#3C3C3B"/>
</svg>
