<svg width="100" height="100" viewBox="0 0 100 100" fill="none" xmlns="http://www.w3.org/2000/svg">
<rect width="100" height="100" fill="none"/>
<path d="M34.72 59.6001C35.4329 58.9932 35.9836 58.2184 36.3223 57.3455C36.6609 56.4725 36.777 55.529 36.6599 54.6001C36.4599 51.6701 34.26 50.05 32.81 48.99C31.18 47.79 30.1799 46.9899 30.1799 45.6699C30.2026 44.9389 30.4989 44.2431 31.01 43.72C31.5724 43.3222 32.2109 43.0451 32.8855 42.9058C33.56 42.7664 34.256 42.7679 34.9299 42.9101L35.3799 39.9101C32.5999 39.5601 30.3799 40.08 28.9599 41.46C28.3451 42.0262 27.8604 42.7193 27.5393 43.491C27.2182 44.2627 27.0682 45.0947 27.0998 45.9299C27.2998 48.8499 29.4999 50.46 30.9499 51.53C32.6599 52.78 33.4501 53.53 33.5801 54.77C33.6201 55.2144 33.5678 55.6624 33.4267 56.0857C33.2856 56.509 33.0587 56.8985 32.76 57.23C31.76 58 29.97 58.17 27.81 57.75L27.1199 60.75C28.0817 60.9385 29.0599 61.0323 30.04 61.03C31.7203 61.1239 33.3791 60.6171 34.72 59.6001V59.6001Z" fill="#3C3C3B"/>
<path d="M71.4299 59.6001C72.1429 58.9932 72.6935 58.2184 73.0322 57.3455C73.3709 56.4726 73.4869 55.5291 73.3699 54.6001C73.1699 51.6701 70.97 50.05 69.52 48.99C67.88 47.79 66.8799 46.99 66.8799 45.67C66.9101 44.9406 67.2053 44.2474 67.71 43.72C68.2701 43.3178 68.9087 43.038 69.584 42.8985C70.2593 42.7589 70.9562 42.7629 71.6299 42.9102L72.0901 39.9102C69.3301 39.5602 67.0899 40.1 65.6599 41.46C65.048 42.028 64.5659 42.7215 64.2466 43.4929C63.9273 44.2644 63.7785 45.0956 63.8101 45.93C64.0101 48.85 66.2099 50.4601 67.6599 51.5301C69.3699 52.7801 70.15 53.53 70.29 54.77C70.3252 55.2149 70.2696 55.6624 70.1269 56.0852C69.9843 56.5081 69.7574 56.8974 69.46 57.23C68.46 58 66.68 58.17 64.52 57.75L63.8301 60.75C64.7919 60.9385 65.7698 61.0323 66.75 61.0301C68.4303 61.1239 70.0891 60.6171 71.4299 59.6001V59.6001Z" fill="#3C3C3B"/>
<path d="M59.31 61.1801V40.6801L56.17 39.9401L50.1 52.4201L43.92 39.9401L40.88 40.6801V61.1801H43.96V46.7701L48.54 56.2101H51.65L56.24 46.7701V61.1801H59.31Z" fill="#3C3C3B"/>
<path d="M86.3401 83.8701V30H13V70.9199H73.3899L86.3401 83.8701ZM16.0701 33.0801H83.27V76.51L74.5999 67.8401H16.0701V33.0801Z" fill="#3C3C3B"/>
</svg>
