<svg width="100" height="100" viewBox="0 0 100 100" fill="none" xmlns="http://www.w3.org/2000/svg">
<rect width="100" height="100" fill="none"/>
<path d="M50.0043 17C48.3137 17 46.661 17.5015 45.2553 18.4407C43.8495 19.38 42.7539 20.7149 42.1069 22.2769C41.4599 23.8389 41.2906 25.5577 41.6204 27.2159C41.9503 28.874 42.7644 30.397 43.9599 31.5925C45.1554 32.788 46.6785 33.6022 48.3367 33.932C49.9949 34.2618 51.7136 34.0925 53.2755 33.4455C54.8375 32.7985 56.1726 31.7031 57.1119 30.2973C58.0511 28.8916 58.5524 27.2389 58.5524 25.5482C58.5501 23.2818 57.6488 21.1088 56.0462 19.5062C54.4437 17.9037 52.2707 17.0023 50.0043 17V17ZM50.0043 31.4666C48.8334 31.4684 47.6882 31.1229 46.7138 30.4736C45.7393 29.8243 44.9794 28.9004 44.5301 27.8191C44.0808 26.7377 43.9623 25.5475 44.1897 24.3988C44.4171 23.2501 44.9801 22.1947 45.8075 21.3661C46.6349 20.5375 47.6895 19.973 48.8378 19.744C49.9862 19.5149 51.1766 19.6316 52.2586 20.0794C53.3406 20.5271 54.2654 21.2856 54.9162 22.2591C55.5669 23.2326 55.9142 24.3772 55.9143 25.5482C55.912 27.1157 55.2889 28.6184 54.1813 29.7276C53.0737 30.8368 51.5718 31.4621 50.0043 31.4666V31.4666Z" fill="#39373A"/>
<path fill-rule="evenodd" clip-rule="evenodd" d="M56.2128 79.3304C55.362 81.4563 53.4788 83.2482 50.0043 83.2482C44.8801 83.2482 43.2139 78.3637 43.2139 75.2482L42.3461 64.7864H42.2246C38.2933 64.4046 36.5577 62.3043 36.5577 57.7482V41.4728C36.6123 40.3741 37.0732 39.335 37.851 38.5572C38.6288 37.7794 39.668 37.3185 40.7666 37.2639H59.2334C60.332 37.3185 61.3711 37.7794 62.1489 38.5572C62.9268 39.335 63.3877 40.3741 63.4423 41.4728V47.6998C62.5356 47.957 61.6571 48.2815 60.8128 48.6678V41.4641C60.7635 41.0623 60.5813 40.6886 60.2951 40.4024C60.0088 40.1162 59.6351 39.9341 59.2334 39.8848H40.7666C40.3659 39.9344 39.9933 40.1169 39.7086 40.4032C39.4238 40.6896 39.2433 41.063 39.1958 41.4641V57.7395C39.1958 61.3324 40.0724 62.209 43.6652 62.209H44.9756L45.8434 75.2482C45.8434 76.9145 46.3381 80.6187 50.0043 80.6187C52.6573 80.6187 53.645 78.679 53.9883 76.9755C54.6601 77.824 55.4047 78.6121 56.2128 79.3304Z" fill="#39373A"/>
<path d="M82.1443 62.3493L79.304 61.737V61.6766C79.1824 61.3101 79.0348 60.9528 78.8623 60.6072V60.5468L80.473 58.1752C80.6416 57.9242 80.7174 57.6227 80.6874 57.3222C80.6574 57.0217 80.5234 56.741 80.3085 56.528C79.8582 56.0796 79.4425 55.6655 78.8969 55.1653L77.5547 53.8545C77.3424 53.6448 77.0652 53.5128 76.768 53.4799C76.4709 53.447 76.1713 53.5152 75.918 53.6734L73.5365 55.243H73.4845C73.1468 55.0878 72.8004 54.9498 72.4194 54.8118H72.3675L71.7959 52.0349C71.7357 51.7412 71.575 51.4774 71.3413 51.2887C71.1075 51.0999 70.8152 50.998 70.5142 51H66.5567C66.2759 51.024 66.0103 51.1376 65.7997 51.3241C65.589 51.5106 65.4445 51.7599 65.3877 52.0349L64.8161 54.8118H64.7641C64.3831 54.9498 64.0367 55.0878 63.699 55.243H63.647L61.2656 53.6734C61.0141 53.5144 60.7156 53.4457 60.4195 53.4786C60.1235 53.5116 59.8476 53.6441 59.6375 53.8545L58.2866 55.1653C57.7843 55.6397 57.3254 56.0796 56.8751 56.528C56.6601 56.741 56.5262 57.0217 56.4962 57.3222C56.4662 57.6227 56.5419 57.9242 56.7105 58.1752L58.3212 60.5468V60.6072C58.1487 60.9528 58.0012 61.3101 57.8796 61.6766V61.737L55.0392 62.3493C54.7451 62.4108 54.4812 62.5712 54.2919 62.8037C54.1027 63.0361 53.9996 63.3264 54 63.6257V67.4029C54.0035 67.6992 54.1084 67.9857 54.2974 68.2146C54.4863 68.4435 54.748 68.6014 55.0392 68.6622L57.8796 69.2831V69.3347C58.0043 69.7028 58.1517 70.0629 58.3212 70.4127V70.4645L56.7105 72.8534C56.5464 73.1028 56.4733 73.4009 56.5032 73.6975C56.5332 73.9942 56.6644 74.2716 56.8751 74.4835C57.3254 74.932 57.793 75.3458 58.2433 75.8115L58.2866 75.8546C58.7369 76.2772 59.1526 76.717 59.6289 77.1569C59.8412 77.3665 60.1184 77.4986 60.4156 77.5314C60.7127 77.5643 61.0123 77.4961 61.2656 77.3379L63.6644 75.7944H63.7163C64.0541 75.9496 64.4091 76.1047 64.7815 76.234H64.8334L65.3877 78.9939C65.4427 79.2915 65.6014 79.5601 65.8359 79.7525C66.0703 79.945 66.3655 80.049 66.6693 80.046H70.5142C70.8181 80.049 71.1132 79.945 71.3477 79.7525C71.5821 79.5601 71.7408 79.2915 71.7959 78.9939L72.3501 76.234H72.4021C72.7716 76.096 73.1266 75.9496 73.4673 75.7944H73.5192L75.918 77.3379C76.1694 77.497 76.4679 77.5659 76.764 77.5329C77.0601 77.5 77.3359 77.3672 77.546 77.1569L78.8969 75.846C79.3992 75.3717 79.8582 74.932 80.3085 74.4835C80.5163 74.27 80.6456 73.9928 80.6755 73.6969C80.7054 73.4011 80.634 73.1039 80.473 72.8534L78.8623 70.4645V70.4127C79.0318 70.0629 79.1793 69.7028 79.304 69.3347V69.2831L82.1443 68.6622C82.4356 68.6014 82.6972 68.4435 82.8862 68.2146C83.0751 67.9857 83.18 67.6992 83.1835 67.4029V63.617C83.182 63.3192 83.078 63.031 82.8889 62.8003C82.6998 62.5696 82.437 62.4104 82.1443 62.3493V62.3493ZM80.5769 66.3508L78.0916 66.8856C77.8587 66.9372 77.6443 67.0512 77.4718 67.2153C77.2994 67.3795 77.1753 67.5877 77.113 67.8171C76.9157 68.5689 76.6248 69.2932 76.247 69.9731C76.1249 70.1848 76.0651 70.4265 76.0742 70.6705C76.0834 70.9144 76.1613 71.1508 76.299 71.3529L77.6759 73.4055L77.6066 73.4657C77.4334 73.6296 77.2689 73.8021 77.0957 73.9746L76.4635 74.5955L74.3765 73.2329C74.1727 73.1059 73.9371 73.0385 73.6967 73.0385C73.4563 73.0385 73.2208 73.1059 73.0169 73.2329C72.3447 73.6181 71.6219 73.9083 70.8693 74.0953C70.6325 74.1565 70.4176 74.2829 70.2492 74.4597C70.0808 74.6366 69.9656 74.857 69.9167 75.0958L69.4318 77.4933H67.6998L67.2062 75.0958C67.1573 74.857 67.0421 74.6366 66.8737 74.4597C66.7053 74.2829 66.4905 74.1565 66.2536 74.0953C65.5033 73.9099 64.7831 73.6195 64.1146 73.2329C63.9092 73.1061 63.6723 73.0389 63.4305 73.0389C63.1888 73.0389 62.9519 73.1061 62.7464 73.2329L60.6594 74.5955L60.0619 74.0092L59.5163 73.4657L59.447 73.4055L60.8153 71.3529C60.9562 71.1525 61.0368 70.9162 61.0476 70.6717C61.0583 70.4273 60.9987 70.185 60.8759 69.9731C60.4981 69.2932 60.2072 68.5689 60.0099 67.8171C59.9476 67.5877 59.8236 67.3795 59.6511 67.2153C59.4786 67.0512 59.2643 66.9372 59.0313 66.8856L56.546 66.3508V64.626L59.0313 64.1C59.2647 64.0494 59.4794 63.9355 59.6521 63.7712C59.8247 63.6068 59.9485 63.3984 60.0099 63.1686C60.2104 62.422 60.5042 61.7034 60.8846 61.0298C61.0012 60.8206 61.0573 60.5833 61.0466 60.3442C61.0359 60.1052 60.9588 59.8738 60.8239 59.6757L59.4297 57.5974L59.499 57.537L60.0272 57.0369L60.5988 56.4849L60.6594 56.4244L62.7464 57.7698C62.9471 57.9051 63.1821 57.981 63.4242 57.9886C63.6664 57.9962 63.9058 57.9354 64.1146 57.813C64.7835 57.4168 65.503 57.1122 66.2536 56.9074C66.4912 56.8457 66.7069 56.7196 66.8766 56.543C67.0463 56.3663 67.1634 56.1462 67.2149 55.9071L67.6998 53.5355H69.3798L69.8734 55.9157C69.9228 56.1534 70.0383 56.3724 70.2067 56.5478C70.3752 56.7232 70.5898 56.8478 70.826 56.9074C71.579 57.1131 72.3012 57.4177 72.9737 57.813C73.1775 57.94 73.413 58.0073 73.6534 58.0073C73.8938 58.0073 74.1294 57.94 74.3332 57.813L76.4202 56.459L76.4809 56.5194L77.0524 57.0712L77.5807 57.5715L77.6499 57.6319L76.2644 59.7016C76.128 59.9023 76.0501 60.1367 76.0394 60.3788C76.0287 60.6208 76.0856 60.8611 76.2037 61.073C76.5839 61.7548 76.875 62.4822 77.0697 63.2376C77.1311 63.4674 77.2549 63.6759 77.4275 63.8402C77.6002 64.0045 77.815 64.1182 78.0483 64.1689L80.5336 64.695L80.5769 66.3508Z" fill="#39373A"/>
<path d="M68.5398 59.3568C67.3186 59.3568 66.1248 59.7174 65.1094 60.3931C64.094 61.0687 63.3026 62.029 62.8353 63.1525C62.368 64.2761 62.2457 65.5126 62.4839 66.7054C62.7222 67.8982 63.3103 68.9938 64.1738 69.8537C65.0373 70.7137 66.1375 71.2994 67.3352 71.5367C68.5329 71.7739 69.7744 71.6521 70.9026 71.1867C72.0309 70.7213 72.9952 69.933 73.6736 68.9218C74.3521 67.9106 74.7142 66.7218 74.7142 65.5057C74.7119 63.8755 74.0606 62.313 72.9032 61.1603C71.7458 60.0077 70.1766 59.359 68.5398 59.3568ZM68.5398 69.0675C67.8324 69.0675 67.1409 68.8586 66.5527 68.4673C65.9646 68.0759 65.5062 67.5196 65.2355 66.8688C64.9648 66.2179 64.894 65.5018 65.032 64.8108C65.17 64.1199 65.5106 63.4852 66.0108 62.9871C66.511 62.4889 67.1483 62.1499 67.842 62.0124C68.5358 61.875 69.2549 61.9454 69.9084 62.215C70.5619 62.4846 71.1205 62.9412 71.5135 63.5269C71.9065 64.1126 72.1162 64.8012 72.1162 65.5057C72.1162 66.4503 71.7395 67.3563 71.0687 68.0243C70.398 68.6922 69.4883 69.0675 68.5398 69.0675Z" fill="#39373A"/>
</svg>
