<svg width="100" height="100" viewBox="0 0 100 100" fill="none" xmlns="http://www.w3.org/2000/svg">
<rect width="100" height="100" fill="none"/>
<path d="M50.0043 17C48.3137 17 46.661 17.5015 45.2553 18.4407C43.8495 19.38 42.7539 20.7149 42.1069 22.2769C41.4599 23.8389 41.2906 25.5577 41.6204 27.2159C41.9503 28.874 42.7644 30.397 43.9599 31.5925C45.1554 32.788 46.6785 33.6022 48.3367 33.932C49.9949 34.2618 51.7136 34.0925 53.2755 33.4455C54.8375 32.7985 56.1726 31.7031 57.1119 30.2973C58.0511 28.8916 58.5524 27.2389 58.5524 25.5482C58.5501 23.2818 57.6488 21.1088 56.0463 19.5062C54.4437 17.9037 52.2707 17.0023 50.0043 17V17ZM50.0043 31.4666C48.8334 31.4684 47.6883 31.1229 46.7138 30.4736C45.7394 29.8243 44.9794 28.9004 44.5301 27.8191C44.0808 26.7377 43.9623 25.5475 44.1897 24.3988C44.4171 23.2501 44.9801 22.1947 45.8075 21.3661C46.6349 20.5375 47.6895 19.973 48.8378 19.744C49.9862 19.5149 51.1766 19.6316 52.2586 20.0794C53.3406 20.5271 54.2654 21.2856 54.9162 22.2591C55.5669 23.2326 55.9143 24.3772 55.9143 25.5482C55.912 27.1157 55.2889 28.6184 54.1813 29.7276C53.0737 30.8368 51.5718 31.4621 50.0043 31.4666V31.4666Z" fill="#39373A"/>
<path d="M50.0043 83.2482C55.1198 83.2482 56.7861 79.3637 56.7861 76.2482L57.6539 64.7864H57.7754C61.7501 64.4046 63.4423 62.3043 63.4423 57.7482V41.4728C63.3877 40.3741 62.9268 39.335 62.1489 38.5572C61.3711 37.7794 60.332 37.3185 59.2334 37.2639H40.7666C39.668 37.3185 38.6288 37.7794 37.851 38.5572C37.0732 39.335 36.6123 40.3741 36.5577 41.4728V57.7482C36.5577 62.3043 38.2933 64.4046 42.2246 64.7864H42.3461L43.2139 75.2482C43.2139 78.3637 44.8801 83.2482 50.0043 83.2482ZM39.1958 57.7395V41.4641C39.2433 41.063 39.4238 40.6896 39.7086 40.4032C39.9933 40.1169 40.3659 39.9344 40.7666 39.8848H59.2334C59.6351 39.9341 60.0088 40.1162 60.2951 40.4024C60.5813 40.6886 60.7635 41.0623 60.8128 41.4641V57.7395C60.8128 61.3324 59.945 62.209 56.3435 62.209H55.0244L54.1565 75.2482C54.1565 76.9145 53.6706 80.6187 50.0043 80.6187C46.3381 80.6187 45.8434 76.9145 45.8434 75.2482L44.9756 62.209H43.6652C40.0724 62.209 39.1958 61.3324 39.1958 57.7395Z" fill="#39373A"/>
</svg>
