<svg width="300" height="78" viewBox="0 0 300 78" fill="none" xmlns="http://www.w3.org/2000/svg">
<path d="M281.471 17.0583H271.223L252.377 35.8426V17.0583H245.151V60.6595H252.377V41.9386L271.223 60.6595H281.471L259.666 38.8642L281.471 17.0583Z" fill="#1D1D1B"/>
<path d="M206.434 23.4711C204.371 25.4637 202.74 27.8574 201.639 30.5048C200.538 33.1522 199.992 35.9971 200.032 38.8641C199.984 41.7305 200.528 44.5758 201.63 47.2225C202.731 49.8691 204.366 52.2602 206.434 54.2465C209.501 57.3186 213.414 59.4075 217.675 60.2466C221.934 61.0858 226.347 60.6373 230.351 58.9585C232.942 57.8422 235.298 56.2431 237.291 54.2465L232.136 49.1543C230.1 51.1829 227.51 52.5631 224.69 53.1208C221.872 53.6786 218.951 53.3888 216.296 52.288C213.641 51.1873 211.372 49.3248 209.775 46.9358C208.178 44.5467 207.324 41.7381 207.321 38.8641C207.322 35.9893 208.176 33.1795 209.775 30.7903C211.373 28.4012 213.646 26.5402 216.303 25.443C218.959 24.3457 221.882 24.0615 224.701 24.6264C227.52 25.1913 230.107 26.5798 232.136 28.6162L237.291 23.4711C235.301 21.4681 232.944 19.8651 230.351 18.7486C226.345 17.0768 221.933 16.633 217.674 17.4739C213.415 18.3147 209.503 20.4021 206.434 23.4711Z" fill="#1D1D1B"/>
<path d="M116.681 60.6595H145.711V53.3697H123.907V17.0583H116.681V60.6595Z" fill="#1D1D1B"/>
<path d="M92.098 38.8641L77.5195 38.8007V24.348H92.098C94.0057 24.3645 95.8309 25.1282 97.1818 26.4753C98.5328 27.8223 99.3018 29.6454 99.3239 31.5532C99.3212 33.4747 98.561 35.3179 97.2083 36.6825C95.8556 38.0472 94.0194 38.8235 92.098 38.843V38.8641ZM104.035 39.7832C105.73 37.3748 106.631 34.4978 106.613 31.5532C106.645 29.6472 106.287 27.7547 105.56 25.9924C104.833 24.2301 103.753 22.635 102.387 21.3053C101.058 19.9416 99.4649 18.8635 97.7048 18.1368C95.9447 17.4103 94.0548 17.0504 92.1508 17.0794H70.2937V60.6594H77.5195V46.1433H89.8267L98.278 60.6594H106.645L97.6231 45.0128C100.234 43.9579 102.468 42.1434 104.035 39.8044" fill="#1D1D1B"/>
<path d="M58.7682 17.0583H51.5424V60.6595H58.7682V17.0583Z" fill="#1D1D1B"/>
<path d="M21.8043 33.3282L28.2168 46.1434H15.3919L21.8043 33.3282ZM0 60.6595H8.11325L11.8107 53.3697H31.8825L35.5271 60.6595H43.6298L21.8043 17.0583L0 60.6595Z" fill="#1D1D1B"/>
<path d="M186.816 23.4288C185.711 22.3131 184.493 21.3147 183.182 20.4496L180.361 27.4224C180.814 27.7866 181.249 28.1745 181.661 28.5845C183.027 29.9142 184.106 31.5093 184.833 33.2716C185.56 35.0339 185.918 36.9264 185.886 38.8324C185.887 40.7381 185.513 42.6253 184.783 44.3859C184.054 46.1465 182.985 47.7459 181.636 49.0924C180.288 50.439 178.688 51.5062 176.926 52.2329C175.165 52.9596 173.277 53.3315 171.371 53.3274C170.854 53.3274 170.315 53.3274 169.861 53.264L167.05 60.2262C168.476 60.4924 169.922 60.6233 171.371 60.6171C174.248 60.6719 177.104 60.1315 179.762 59.0298C182.42 57.9281 184.821 56.2888 186.816 54.2148C188.907 52.2429 190.562 49.8561 191.678 47.2072C192.793 44.5584 193.342 41.7059 193.292 38.8324C193.328 35.9577 192.772 33.1065 191.657 30.4563C190.544 27.8061 188.895 25.4139 186.816 23.4288ZM156.867 38.8324C156.859 36.9242 157.23 35.0334 157.957 33.269C158.685 31.5047 159.753 29.9017 161.103 28.5524C162.452 27.203 164.055 26.1341 165.819 25.407C167.583 24.68 169.474 24.3093 171.382 24.3163C171.904 24.3143 172.426 24.339 172.945 24.3902L175.755 17.428C174.313 17.1582 172.849 17.0238 171.382 17.0265C168.511 16.9704 165.66 17.5105 163.01 18.6125C160.358 19.7145 157.964 21.3545 155.979 23.4288C153.917 25.4234 152.286 27.819 151.184 30.4681C150.083 33.1172 149.536 35.9638 149.577 38.8324C149.532 41.6985 150.077 44.5432 151.178 47.1896C152.28 49.836 153.914 52.2273 155.979 54.2148C157.1 55.3478 158.34 56.3571 159.677 57.2258L162.518 50.3164C162.034 49.9422 161.569 49.5438 161.124 49.1225C159.768 47.7768 158.695 46.1728 157.97 44.4055C157.244 42.638 156.879 40.7429 156.898 38.8324" fill="#1D1D1B"/>
<path d="M156.988 63.7821L152.596 74.6545L159.99 77.6423L164.382 66.77L156.988 63.7821Z" fill="#808A8E"/>
<path d="M182.761 0L178.369 10.8722L185.763 13.8601L190.155 2.98782L182.761 0Z" fill="#808A8E"/>
<path d="M293.513 23.1012H290.904V20.513H293.513C293.856 20.513 294.185 20.6484 294.428 20.8898C294.672 21.1312 294.809 21.459 294.813 21.8018C294.816 21.9744 294.783 22.1457 294.718 22.3055C294.652 22.4653 294.555 22.6101 294.432 22.7314C294.312 22.8521 294.168 22.947 294.011 23.0106C293.852 23.0742 293.683 23.105 293.513 23.1012ZM295.626 23.2702C295.931 22.8378 296.094 22.3207 296.091 21.7912C296.082 21.1091 295.809 20.4572 295.327 19.9738C294.846 19.4905 294.196 19.214 293.513 19.203H289.605V27.0204H290.904V24.4217H293.112L294.622 27.0204H296.122L294.57 24.2104C295.04 24.0259 295.442 23.7014 295.721 23.2808" fill="#1D1D1B"/>
<path d="M292.732 30.4967C291.294 30.4967 289.888 30.0701 288.693 29.271C287.497 28.4719 286.566 27.336 286.016 26.0072C285.466 24.6785 285.323 23.2165 285.604 21.8062C285.885 20.3959 286.578 19.1008 287.597 18.0847C288.614 17.0686 289.91 16.3771 291.321 16.0979C292.731 15.8186 294.193 15.964 295.521 16.5158C296.849 17.0675 297.983 18.0008 298.78 19.1976C299.577 20.3943 300.002 21.8006 300 23.2387C299.997 25.1646 299.23 27.0106 297.867 28.3715C296.504 29.7324 294.658 30.4967 292.732 30.4967ZM292.732 17.0477C291.507 17.0477 290.311 17.4108 289.292 18.0911C288.275 18.7713 287.482 19.7382 287.012 20.8695C286.544 22.0007 286.421 23.2455 286.661 24.4464C286.899 25.6475 287.489 26.7505 288.354 27.6163C289.22 28.4822 290.323 29.0718 291.524 29.3107C292.724 29.5496 293.97 29.427 295.101 28.9584C296.232 28.4898 297.199 27.6963 297.879 26.6782C298.559 25.6601 298.922 24.4631 298.922 23.2387C298.909 21.6049 298.251 20.0426 297.092 18.8913C295.932 17.74 294.365 17.0927 292.732 17.0899V17.0477Z" fill="#1D1D1B"/>
</svg>
