<svg width="168" height="168" viewBox="0 0 168 168" fill="none" xmlns="http://www.w3.org/2000/svg">
<path d="M112.848 55.0557C110.776 52.9576 108.491 51.0803 106.032 49.4535L100.742 62.5651C101.592 63.2501 102.406 63.9793 103.179 64.7503C105.741 67.2507 107.766 70.2501 109.129 73.5639C110.492 76.8778 111.164 80.4364 111.105 84.0204C111.107 87.6039 110.405 91.1526 109.036 94.4632C107.669 97.7739 105.664 100.781 103.134 103.313C100.605 105.846 97.6035 107.852 94.2986 109.219C90.9957 110.585 87.455 111.284 83.8806 111.277C82.9097 111.277 81.8992 111.277 81.0472 111.158L75.7768 124.249C78.4496 124.75 81.1621 124.996 83.8806 124.984C89.2758 125.087 94.6334 124.071 99.6186 122C104.604 119.928 109.107 116.845 112.848 112.945C116.769 109.237 119.874 104.749 121.966 99.7685C124.059 94.7877 125.089 89.4238 124.994 84.0204C125.061 78.6149 124.019 73.2534 121.929 68.27C119.84 63.2866 116.748 58.7883 112.848 55.0557ZM56.6764 84.0204C56.6625 80.4322 57.358 76.8768 58.7212 73.5592C60.0863 70.2415 62.0895 67.2272 64.6217 64.6899C67.1519 62.1527 70.1576 60.1426 73.4665 58.7754C76.7754 57.4084 80.322 56.7113 83.9004 56.7244C84.8792 56.7207 85.858 56.7672 86.8328 56.8635L92.1032 43.7718C89.3987 43.2644 86.6525 43.0117 83.9004 43.0169C78.517 42.9114 73.1693 43.9269 68.198 45.9991C63.2248 48.0712 58.735 51.1552 55.012 55.0557C51.1444 58.8062 48.0851 63.3108 46.0186 68.2923C43.954 73.2737 42.9276 78.6264 43.0049 84.0204C42.9197 89.4099 43.9421 94.7591 46.0067 99.7353C48.0733 104.712 51.1384 109.208 55.012 112.945C57.1142 115.076 59.4404 116.974 61.9468 118.607L67.2767 105.615C66.3672 104.911 65.4955 104.162 64.6613 103.37C62.1172 100.839 60.1061 97.8234 58.7449 94.5C57.3837 91.1764 56.7002 87.613 56.7358 84.0204" fill="#1D1D1B"/>
<path d="M56.9043 130.935L48.6658 151.381L62.5353 157L70.7738 136.554L56.9043 130.935Z" fill="#808A8E"/>
<path d="M105.244 11L97.0051 31.4455L110.875 37.0643L119.113 16.6187L105.244 11Z" fill="#808A8E"/>
</svg>
