<svg width="140" height="140" viewBox="0 0 140 140" fill="none" xmlns="http://www.w3.org/2000/svg">
<rect x="20" y="20" width="100" height="100" fill="#ADCC14"/>
<rect x="70" y="120" width="50" height="100" transform="rotate(-180 70 120)" fill="url(#paint0_linear)"/>
<circle cx="70" cy="70" r="35" fill="#ADCC14"/>
<path d="M70 35C65.4037 35 60.8525 35.9053 56.6061 37.6642C52.3597 39.4231 48.5013 42.0012 45.2513 45.2513C42.0012 48.5013 39.4231 52.3597 37.6642 56.6061C35.9053 60.8525 35 65.4037 35 70L70 70L70 35Z" fill="url(#paint1_radial)"/>
<path d="M70 105C74.5963 105 79.1475 104.095 83.3939 102.336C87.6403 100.577 91.4987 97.9988 94.7487 94.7487C97.9988 91.4987 100.577 87.6403 102.336 83.3939C104.095 79.1475 105 74.5963 105 70L70 70L70 105Z" fill="url(#paint2_radial)"/>
<defs>
<linearGradient id="paint0_linear" x1="95" y1="120" x2="95" y2="220" gradientUnits="userSpaceOnUse">
<stop stop-color="#384D0F"/>
<stop offset="1" stop-color="#70991F"/>
</linearGradient>
<radialGradient id="paint1_radial" cx="0" cy="0" r="1" gradientUnits="userSpaceOnUse" gradientTransform="translate(70 70) rotate(90) scale(35)">
<stop stop-color="#70991F"/>
<stop offset="1" stop-color="#384D0F"/>
</radialGradient>
<radialGradient id="paint2_radial" cx="0" cy="0" r="1" gradientUnits="userSpaceOnUse" gradientTransform="translate(70 70) rotate(90) scale(35)">
<stop stop-color="#70991F"/>
<stop offset="1" stop-color="#384D0F"/>
</radialGradient>
</defs>
</svg>
