<svg width="100" height="100" viewBox="0 0 100 100" fill="none" xmlns="http://www.w3.org/2000/svg">
<rect width="100" height="100" fill="none"/>
<path d="M50.0001 22.0292C45.0711 21.925 40.1769 22.8743 35.6443 24.8136C31.8796 26.5484 29.1818 29.1508 29.1818 32.4383V67.5692C29.1818 70.8394 31.8796 73.4157 35.6443 75.1679C44.845 78.9155 55.1466 78.9155 64.3474 75.1679C68.112 73.433 70.8183 70.8307 70.8183 67.5692V32.4383C70.8183 29.1681 68.112 26.5658 64.3474 24.8136C59.8178 22.8742 54.9262 21.9249 50.0001 22.0292ZM50.0001 24.6314C54.5475 24.5401 59.0631 25.4062 63.2542 27.1732C66.5504 28.7085 68.2161 30.6427 68.2161 32.4383C68.2161 34.2339 66.5504 36.1422 63.2542 37.6429C54.7466 41.0668 45.2446 41.0668 36.737 37.6429C33.4408 36.1075 31.784 34.1732 31.784 32.4383C31.784 30.7035 33.4408 28.7085 36.737 27.1732C40.931 25.4055 45.4498 24.5394 50.0001 24.6314ZM31.784 37.5823C32.9451 38.5832 34.2455 39.4099 35.6443 40.037C44.845 43.7846 55.1466 43.7846 64.3474 40.037C65.7477 39.4079 67.0505 38.5813 68.2161 37.5823V44.1486C68.2161 45.8835 66.5504 47.8525 63.2542 49.3532C54.7466 52.777 45.2446 52.777 36.737 49.3532C33.4408 47.8178 31.784 45.8835 31.784 44.1486V37.5823ZM31.784 49.2666C32.9395 50.2818 34.2408 51.1179 35.6443 51.7473C44.845 55.4949 55.1466 55.4949 64.3474 51.7473C65.7535 51.118 67.0575 50.2819 68.2161 49.2666V55.8589C68.2161 57.5937 66.5504 59.5628 63.2542 61.0635C54.7466 64.4873 45.2446 64.4873 36.737 61.0635C33.4408 59.5281 31.784 57.5937 31.784 55.8589V49.2666ZM31.784 60.9768C32.9395 61.9921 34.2408 62.8282 35.6443 63.4576C44.845 67.2052 55.1466 67.2052 64.3474 63.4576C65.7535 62.8282 67.0575 61.9922 68.2161 60.9768V67.5692C68.2161 69.304 66.5504 71.2731 63.2542 72.7737C54.7466 76.1976 45.2446 76.1976 36.737 72.7737C33.4408 71.2384 31.784 69.304 31.784 67.5692V60.9768Z" fill="#3C3C3B"/>
</svg>
