<svg width="100" height="100" viewBox="0 0 100 100" fill="none" xmlns="http://www.w3.org/2000/svg">
<rect width="100" height="100" fill="none"/>
<path d="M81.53 46.4035C81.5293 46.1694 81.4749 45.9385 81.3708 45.7287C81.2668 45.5189 81.1161 45.3359 80.9302 45.1936L73.9302 39.8335C73.6036 39.6367 73.2156 39.5682 72.8413 39.6411C72.467 39.7139 72.133 39.9229 71.9041 40.2277C71.6751 40.5326 71.5674 40.9117 71.6018 41.2915C71.6362 41.6712 71.8101 42.0246 72.0901 42.2834L77.51 46.4035L49.78 67.6836L22.1101 46.4035L27.5801 42.2536C27.8193 42.0619 27.9963 41.8033 28.0886 41.5109C28.181 41.2186 28.1845 40.9056 28.0989 40.6113C28.0132 40.3169 27.8422 40.0546 27.6074 39.8574C27.3727 39.6602 27.0847 39.5372 26.78 39.5036H26.6001C26.238 39.4901 25.883 39.607 25.6001 39.8335L18.6001 45.2036C18.4145 45.3485 18.2641 45.5335 18.1602 45.7448C18.0562 45.9561 18.0015 46.1881 18 46.4235V76.5935C18.0026 78.2317 18.6546 79.802 19.813 80.9604C20.9714 82.1188 22.5419 82.771 24.1802 82.7736H75.25C76.889 82.7736 78.4611 82.1223 79.6201 80.9633C80.7791 79.8044 81.4302 78.2325 81.4302 76.5935L81.53 46.4035ZM78.4602 76.5835C78.4602 77.4083 78.1326 78.1994 77.5493 78.7827C76.9661 79.3659 76.1749 79.6936 75.3501 79.6936H24.28C23.8721 79.6936 23.4683 79.6129 23.0916 79.4565C22.7148 79.3001 22.3725 79.0709 22.0845 78.7819C21.7965 78.493 21.5683 78.1502 21.4131 77.7729C21.2579 77.3956 21.1789 76.9914 21.1802 76.5835V49.4536L48.8801 70.7636C49.1488 70.9728 49.4795 71.0864 49.8201 71.0864C50.1606 71.0864 50.4913 70.9728 50.76 70.7636L78.4602 49.4536V76.5835Z" fill="#3C3C3B"/>
<path d="M49.8201 19.3334C45.1019 19.3334 40.577 21.2078 37.2407 24.5441C33.9045 27.8803 32.03 32.4052 32.03 37.1234C32.03 41.8416 33.9045 46.3665 37.2407 49.7028C40.577 53.039 45.1019 54.9135 49.8201 54.9135C50.2285 54.9135 50.6201 54.7511 50.9089 54.4623C51.1977 54.1735 51.3601 53.7818 51.3601 53.3734C51.3601 52.965 51.1977 52.5734 50.9089 52.2845C50.6201 51.9957 50.2285 51.8334 49.8201 51.8334C46.9107 51.8334 44.0668 50.9707 41.6477 49.3544C39.2287 47.738 37.3431 45.4407 36.2297 42.7528C35.1164 40.0649 34.8252 37.1072 35.3928 34.2538C35.9604 31.4003 37.3612 28.779 39.4185 26.7218C41.4757 24.6646 44.097 23.2638 46.9504 22.6962C49.8039 22.1286 52.7616 22.4197 55.4495 23.5331C58.1374 24.6464 60.4347 26.532 62.051 28.951C63.6674 31.3701 64.53 34.214 64.53 37.1234V41.7635C64.554 42.1861 64.4916 42.6091 64.3464 43.0067C64.2012 43.4043 63.9762 43.7679 63.6855 44.0756C63.3949 44.3832 63.0445 44.6283 62.6558 44.7958C62.2671 44.9633 61.8483 45.0497 61.425 45.0497C61.0018 45.0497 60.583 44.9633 60.1943 44.7958C59.8056 44.6283 59.4552 44.3832 59.1646 44.0756C58.8739 43.7679 58.6491 43.4043 58.5039 43.0067C58.3587 42.6091 58.2961 42.1861 58.3201 41.7635V37.1234C58.32 35.209 57.6775 33.3502 56.4954 31.8444C55.3132 30.3385 53.6599 29.273 51.8003 28.8185C49.9407 28.3639 47.9822 28.5466 46.2388 29.3373C44.4953 30.128 43.0675 31.4808 42.1843 33.1793C41.3011 34.8778 41.0134 36.8236 41.3674 38.705C41.7214 40.5863 42.6968 42.2945 44.137 43.5558C45.5771 44.8171 47.3987 45.5586 49.3103 45.6615C51.2219 45.7644 53.1129 45.2228 54.6802 44.1234L55.4402 43.5834L55.8401 44.4235C56.4411 45.6862 57.4527 46.7077 58.7095 47.3212C59.9663 47.9346 61.394 48.1037 62.7593 47.8007C64.1246 47.4976 65.3468 46.7405 66.2261 45.653C67.1054 44.5654 67.5897 43.2118 67.6001 41.8134V37.1735C67.6054 34.8343 67.1495 32.517 66.2585 30.3541C65.3676 28.1912 64.059 26.2251 62.4077 24.5682C60.7564 22.9114 58.7949 21.5961 56.635 20.6979C54.4751 19.7997 52.1593 19.336 49.8201 19.3334V19.3334ZM49.8201 42.5533C48.7461 42.5533 47.6964 42.235 46.8035 41.6383C45.9105 41.0416 45.2145 40.1935 44.8035 39.2013C44.3925 38.2091 44.2849 37.1174 44.4944 36.0641C44.7039 35.0108 45.2211 34.0432 45.9805 33.2838C46.7399 32.5244 47.7074 32.0072 48.7607 31.7977C49.8141 31.5882 50.9057 31.6958 51.8979 32.1068C52.8902 32.5178 53.7383 33.2139 54.335 34.1068C54.9316 34.9998 55.25 36.0495 55.25 37.1234C55.2474 38.5627 54.6745 39.9423 53.6567 40.9601C52.639 41.9778 51.2594 42.5507 49.8201 42.5533Z" fill="#3C3C3B"/>
</svg>
