<svg width="100" height="100" viewBox="0 0 100 100" fill="none" xmlns="http://www.w3.org/2000/svg">
<rect width="100" height="100" fill="none"/>
<path d="M49.8 18.3334C48.123 18.3334 46.5145 18.999 45.3276 20.184C44.1408 21.3689 43.4726 22.9764 43.47 24.6534V25.1835L43.27 25.2535C39.3278 26.5926 35.9041 29.1326 33.4792 32.517C31.0544 35.9013 29.7502 39.96 29.75 44.1234V62.5536C29.75 63.6702 29.3066 64.7409 28.5171 65.5304C27.7276 66.3199 26.6566 66.7635 25.54 66.7635C25.1316 66.7635 24.74 66.9257 24.4512 67.2145C24.1624 67.5033 24 67.8952 24 68.3036C24 68.712 24.1624 69.1037 24.4512 69.3925C24.74 69.6813 25.1316 69.8434 25.54 69.8434H73.98C74.1829 69.8475 74.3846 69.8106 74.5728 69.7345C74.7609 69.6584 74.9317 69.545 75.0747 69.401C75.2177 69.257 75.3302 69.0855 75.405 68.8969C75.4799 68.7082 75.5155 68.5065 75.51 68.3036C75.5254 68.1109 75.5005 67.917 75.4368 67.7345C75.3731 67.552 75.2721 67.3848 75.1401 67.2435C75.002 67.0919 74.8335 66.9707 74.6458 66.8881C74.458 66.8054 74.2552 66.7631 74.05 66.7635C72.9335 66.7635 71.8628 66.3199 71.0732 65.5304C70.2837 64.7409 69.8401 63.6702 69.8401 62.5536V44.1234C69.8399 39.96 68.5357 35.9013 66.1108 32.517C63.686 29.1326 60.2622 26.5926 56.3201 25.2535L56.1201 25.1835V24.6534C56.1175 22.9781 55.4508 21.372 54.2661 20.1874C53.0815 19.0027 51.4754 18.336 49.8 18.3334V18.3334ZM46.71 24.0236C46.8462 23.3051 47.229 22.6567 47.7922 22.1903C48.3554 21.7239 49.0639 21.4686 49.7952 21.4686C50.5264 21.4686 51.2347 21.7239 51.7979 22.1903C52.3611 22.6567 52.7439 23.3051 52.8801 24.0236L52.99 24.4735L52.53 24.3934C51.6293 24.2298 50.7155 24.1495 49.8 24.1534C48.8783 24.1565 47.9584 24.2368 47.05 24.3934L46.6101 24.4635L46.71 24.0236ZM66.77 44.1234V62.5536C66.7587 63.8805 67.1303 65.1825 67.8401 66.3036L68.1401 66.7635H31.5801L31.8801 66.3036C32.59 65.1825 32.9615 63.8805 32.9502 62.5536V44.1234C32.8954 41.8701 33.2918 39.6286 34.1162 37.5309C34.9406 35.4331 36.1762 33.5216 37.7505 31.9086C39.3248 30.2955 41.2059 29.0137 43.283 28.1385C45.36 27.2634 47.591 26.8124 49.845 26.8124C52.0989 26.8124 54.3301 27.2634 56.4072 28.1385C58.4843 29.0137 60.3654 30.2955 61.9397 31.9086C63.514 33.5216 64.7496 35.4331 65.574 37.5309C66.3984 39.6286 66.7948 41.8701 66.74 44.1234H66.77Z" fill="#3C3C3B"/>
<path d="M56.4201 72.0336C56.2163 72.0281 56.0134 72.0641 55.8241 72.1395C55.6348 72.215 55.4628 72.3282 55.3187 72.4723C55.1746 72.6164 55.0614 72.7883 54.986 72.9777C54.9105 73.167 54.8745 73.3696 54.88 73.5734C54.9105 74.2601 54.8015 74.946 54.5597 75.5895C54.3179 76.233 53.9482 76.8208 53.473 77.3175C52.9978 77.8142 52.4269 78.2095 51.7948 78.4796C51.1627 78.7497 50.4825 78.889 49.7951 78.889C49.1076 78.889 48.4272 78.7497 47.7951 78.4796C47.1629 78.2095 46.592 77.8142 46.1168 77.3175C45.6416 76.8208 45.272 76.233 45.0302 75.5895C44.7884 74.946 44.6794 74.2601 44.7098 73.5734C44.727 73.3614 44.7001 73.1482 44.6307 72.9471C44.5614 72.7461 44.4512 72.5617 44.307 72.4054C44.1628 72.2491 43.9877 72.1243 43.7929 72.0389C43.598 71.9536 43.3876 71.9095 43.1749 71.9095C42.9622 71.9095 42.7518 71.9536 42.557 72.0389C42.3622 72.1243 42.1873 72.2491 42.0431 72.4054C41.8989 72.5617 41.7885 72.7461 41.7191 72.9471C41.6498 73.1482 41.6229 73.3614 41.64 73.5734C41.6017 74.6683 41.7841 75.7599 42.1766 76.7828C42.5692 77.8057 43.1639 78.7391 43.9249 79.5272C44.686 80.3154 45.5978 80.9421 46.6063 81.3702C47.6149 81.7984 48.6994 82.0192 49.7951 82.0192C50.8907 82.0192 51.975 81.7984 52.9835 81.3702C53.992 80.9421 54.9041 80.3154 55.6652 79.5272C56.4262 78.7391 57.0207 77.8057 57.4132 76.7828C57.8058 75.7599 57.9884 74.6683 57.9501 73.5734C57.9628 73.3916 57.9382 73.2094 57.8781 73.0375C57.8179 72.8655 57.7232 72.7075 57.6 72.5734C57.4527 72.4049 57.2714 72.2697 57.068 72.1766C56.8646 72.0835 56.6438 72.0349 56.4201 72.0336V72.0336Z" fill="#3C3C3B"/>
</svg>
