<svg width="100" height="100" viewBox="0 0 100 100" fill="none" xmlns="http://www.w3.org/2000/svg">
<rect width="100" height="100" fill="none"/>
<path d="M50.0044 17C48.3137 17 46.661 17.5015 45.2553 18.4407C43.8496 19.38 42.7539 20.7149 42.1069 22.2769C41.4599 23.8389 41.2906 25.5577 41.6205 27.2159C41.9503 28.874 42.7644 30.397 43.9599 31.5925C45.1554 32.788 46.6785 33.6022 48.3367 33.932C49.9949 34.2618 51.7136 34.0925 53.2756 33.4455C54.8375 32.7985 56.1726 31.7031 57.1119 30.2973C58.0512 28.8916 58.5524 27.2389 58.5524 25.5482C58.5502 23.2818 57.6488 21.1088 56.0463 19.5062C54.4437 17.9037 52.2707 17.0023 50.0044 17V17ZM50.0044 31.4666C48.8334 31.4684 47.6883 31.1229 46.7138 30.4736C45.7394 29.8243 44.9794 28.9004 44.5301 27.8191C44.0808 26.7377 43.9623 25.5475 44.1897 24.3988C44.4171 23.2501 44.9801 22.1947 45.8075 21.3661C46.6349 20.5375 47.6895 19.973 48.8378 19.744C49.9862 19.5149 51.1766 19.6316 52.2586 20.0794C53.3406 20.5271 54.2655 21.2856 54.9162 22.2591C55.5669 23.2326 55.9143 24.3772 55.9143 25.5482C55.912 27.1157 55.2889 28.6184 54.1813 29.7276C53.0737 30.8368 51.5719 31.4621 50.0044 31.4666V31.4666Z" fill="#39373A"/>
<path fill-rule="evenodd" clip-rule="evenodd" d="M55.1795 81.083C54.1161 82.3556 52.4565 83.2482 50.0044 83.2482C44.8802 83.2482 43.2139 78.3637 43.2139 75.2482L42.3461 64.7864H42.2246C38.2934 64.4046 36.5577 62.3043 36.5577 57.7482V41.4728C36.6123 40.3741 37.0732 39.335 37.8511 38.5572C38.6289 37.7794 39.668 37.3185 40.7666 37.2639H59.2334C60.332 37.3185 61.3712 37.7794 62.149 38.5572C62.9268 39.335 63.3877 40.3741 63.4423 41.4728V45.6286C62.5405 45.8575 61.6625 46.1461 60.8128 46.49V41.4641C60.7636 41.0623 60.5813 40.6886 60.2951 40.4024C60.0089 40.1162 59.6351 39.9341 59.2334 39.8848H40.7666C40.3659 39.9344 39.9934 40.1169 39.7086 40.4032C39.4238 40.6896 39.2433 41.063 39.1959 41.4641V57.7395C39.1959 61.3324 40.0724 62.209 43.6652 62.209H44.9756L45.8435 75.2482C45.8435 76.9145 46.3381 80.6187 50.0044 80.6187C51.5463 80.6187 52.5257 79.9635 53.143 79.0802C53.7746 79.7939 54.4552 80.4633 55.1795 81.083Z" fill="#39373A"/>
<circle cx="68.5" cy="65.5" r="16.25" stroke="#3C3C3B" stroke-width="2.5"/>
<path d="M70.443 58.0475C70.1215 57.957 69.777 57.9969 69.485 58.1585C69.1929 58.3201 68.9769 58.5902 68.8843 58.9099L65.4203 70.906C65.3294 71.2262 65.3694 71.5693 65.5317 71.8602C65.694 72.1511 65.9653 72.3661 66.2863 72.4584C66.3986 72.4924 66.5153 72.5098 66.6327 72.5102C66.907 72.5094 67.1736 72.4199 67.3923 72.255C67.611 72.0901 67.7699 71.8587 67.8451 71.596L71.309 59.5999C71.398 59.2812 71.3576 58.9404 71.1964 58.6512C71.0341 58.3597 70.7637 58.143 70.443 58.0475Z" fill="#39373A"/>
<path d="M62.8397 68.5344L60.0427 65.2402L62.7964 61.9802C63.0569 61.7841 63.2324 61.4964 63.2871 61.1759C63.3418 60.8554 63.2716 60.5261 63.0909 60.2554C62.9682 60.0896 62.8075 59.9553 62.6223 59.8638C62.437 59.7723 62.2325 59.7261 62.0257 59.7292V59.7292C61.7423 59.7421 61.4713 59.8484 61.255 60.0311L57.5919 64.2482C57.4287 64.3655 57.2957 64.5198 57.2039 64.6982C57.112 64.8766 57.064 65.074 57.0637 65.2745C57.0607 65.4585 57.1005 65.6408 57.1801 65.807C57.2598 65.9731 57.377 66.1185 57.5226 66.2318L61.3243 70.5439C61.5384 70.6977 61.7964 70.7793 62.0604 70.7768C62.2616 70.7758 62.4596 70.7277 62.6387 70.6363C62.8177 70.545 62.9726 70.4127 63.0909 70.2506C63.2826 69.9738 63.3601 69.6343 63.3074 69.3021C63.2572 68.9956 63.0896 68.7203 62.8397 68.5344Z" fill="#39373A"/>
<path d="M79.1981 64.2482L75.4225 59.9361C75.2174 59.7943 74.9749 59.7157 74.7253 59.71C74.4757 59.7043 74.23 59.772 74.0187 59.9043C73.8073 60.0367 73.6397 60.228 73.5367 60.4545C73.4337 60.681 73.3998 60.9324 73.4393 61.1779C73.4895 61.4845 73.6572 61.7597 73.907 61.9456L76.7041 65.2487L73.9503 68.5085C73.6808 68.7025 73.4976 68.9933 73.4393 69.3193C73.4107 69.4994 73.4214 69.6835 73.4707 69.8591C73.5201 70.0348 73.6069 70.1979 73.7253 70.3371C73.8437 70.4763 73.9908 70.5884 74.1567 70.6658C74.3225 70.7431 74.5032 70.7839 74.6863 70.7853C74.9805 70.7819 75.2647 70.6784 75.4917 70.4921L79.1548 66.2663C79.315 66.1534 79.4463 66.0047 79.5384 65.8322C79.6304 65.6596 79.6806 65.4679 79.6848 65.2725C79.689 65.0771 79.6471 64.8833 79.5626 64.707C79.4781 64.5306 79.3533 64.3765 79.1981 64.2568V64.2482Z" fill="#39373A"/>
</svg>
