<svg width="100" height="100" viewBox="0 0 100 100" fill="none" xmlns="http://www.w3.org/2000/svg">
<rect width="100" height="100" fill="none"/>
<path d="M74.6681 60.6354L74.807 56.0706C74.829 55.3316 74.7026 54.5956 74.4352 53.9063C74.1679 53.217 73.765 52.5885 73.2503 52.0577C72.7357 51.5269 72.1199 51.1047 71.4392 50.8162C70.7585 50.5276 70.0269 50.3784 69.2876 50.3776H61.7288L61.2515 50.1606L67.9338 41.1353C68.9568 39.7542 69.5091 38.0809 69.5091 36.3622C69.5091 34.6435 68.9568 32.9702 67.9338 31.5892L61.373 22.7284C60.0543 20.9548 58.3392 19.5143 56.3644 18.5217C54.3897 17.5292 52.2102 17.0123 50 17.0123C47.7899 17.0123 45.6104 17.5292 43.6357 18.5217C41.661 19.5143 39.9458 20.9548 38.6272 22.7284L32.0664 31.5631C31.042 32.9436 30.489 34.6171 30.489 36.3362C30.489 38.0552 31.042 39.7287 32.0664 41.1092L38.7574 50.1432L38.28 50.3602H30.7039C29.9649 50.361 29.2337 50.5101 28.5535 50.7988C27.8733 51.0875 27.258 51.5098 26.7441 52.0408C26.2302 52.5717 25.828 53.2006 25.5616 53.8898C25.2952 54.579 25.1699 55.3147 25.1932 56.0532L25.332 60.618C22.5376 64.5232 20.5763 69.4265 19.1964 76.022C19.0202 76.8639 19.0355 77.7347 19.2413 78.57C19.4471 79.4052 19.8381 80.1835 20.3854 80.8472C23.0323 84.0928 26.6772 82.5828 31.3808 82.9733H68.628C73.349 82.6001 76.9765 84.1015 79.6321 80.8298C80.1746 80.1653 80.5614 79.3877 80.7641 78.5543C80.9668 77.7208 80.9803 76.8527 80.8037 76.0133C79.4238 69.4785 77.4626 64.5406 74.6681 60.6354ZM22.4248 79.1982C22.1333 78.8379 21.9247 78.418 21.8137 77.968C21.7027 77.5181 21.6921 77.0492 21.7826 76.5947C22.4988 72.7258 23.7427 68.9737 25.4795 65.4432L25.8614 77.6708C25.9007 78.6253 26.175 79.5554 26.6598 80.3785C26.6598 80.3785 23.7526 80.821 22.4248 79.1982ZM34.1839 39.5558C33.4928 38.6262 33.1196 37.4987 33.1196 36.3404C33.1196 35.1821 33.4928 34.0548 34.1839 33.1252L40.7447 24.2732C41.8168 22.8283 43.2123 21.6545 44.8195 20.8457C46.4266 20.037 48.2008 19.6156 50 19.6156C51.7993 19.6156 53.5735 20.037 55.1807 20.8457C56.7879 21.6545 58.1834 22.8283 59.2555 24.2732L65.8076 33.1339C66.5 34.0629 66.8739 35.1904 66.8739 36.3491C66.8739 37.5077 66.5 38.6355 65.8076 39.5645L58.136 49.935C58.0312 50.0676 57.9571 50.2217 57.919 50.3863H42.0898C41.9683 49.9176 42.1853 50.3863 34.1839 39.5558V39.5558ZM71.5005 77.5667C71.4802 78.3142 71.1682 79.0238 70.6315 79.5444C70.0947 80.0649 69.3757 80.355 68.628 80.3524H31.3808C30.6316 80.3573 29.9103 80.0683 29.3717 79.5475C28.8331 79.0268 28.52 78.3157 28.4996 77.5667L27.9876 60.9824L27.8314 56.0098C27.8186 55.6242 27.8834 55.2399 28.0219 54.8799C28.1604 54.5198 28.3698 54.1911 28.6377 53.9135C28.9057 53.6359 29.2266 53.4149 29.5815 53.2637C29.9364 53.1125 30.3181 53.0341 30.7039 53.0332H69.2876C69.6738 53.0342 70.0558 53.1126 70.4112 53.2637C70.7666 53.4148 71.0881 53.6356 71.3567 53.9131C71.6253 54.1906 71.8355 54.5191 71.975 54.8792C72.1145 55.2393 72.1804 55.6238 72.1688 56.0098C72.0473 60.0625 71.5266 76.751 71.5005 77.5667V77.5667ZM77.5754 79.1808C76.2389 80.8297 74.4078 80.2309 73.3403 80.3524C73.8167 79.5262 74.0875 78.5975 74.13 77.6447L74.5119 65.4171C76.2487 68.9476 77.4926 72.6997 78.2088 76.5686C78.308 77.023 78.3034 77.4939 78.1952 77.9462C78.087 78.3985 77.8781 78.8205 77.584 79.1808H77.5754Z" fill="#39373A"/>
<path d="M49.9957 49.6052C54.2047 49.6052 58.9517 43.3568 62.1974 38.1151C62.617 37.4379 62.8224 36.6497 62.7868 35.8538C62.7512 35.0579 62.4762 34.2914 61.9978 33.6543C61.3391 32.767 60.4821 32.046 59.4951 31.5488C58.5082 31.0515 57.4186 30.7918 56.3135 30.7905H43.6779C42.5728 30.7918 41.4833 31.0515 40.4964 31.5488C39.5094 32.046 38.6524 32.767 37.9937 33.6543C37.5143 34.2913 37.2395 35.0587 37.2054 35.8551C37.1713 36.6515 37.3796 37.4396 37.8027 38.1151C41.0397 43.3568 45.7867 49.6052 49.9957 49.6052ZM40.1112 35.2252C40.5261 34.6702 41.0643 34.219 41.6832 33.9073C42.3021 33.5956 42.9849 33.4317 43.6779 33.4287H56.3656C57.0586 33.4317 57.7414 33.5956 58.3603 33.9073C58.9793 34.219 59.5174 34.6702 59.9324 35.2252C60.0931 35.4396 60.1857 35.6973 60.1981 35.965C60.2105 36.2328 60.1421 36.4981 60.0018 36.7265C56.0966 43.0443 52.2781 46.9669 50.0391 46.9669C47.8088 46.9669 43.9643 43.0443 40.0851 36.7265C39.9386 36.5024 39.8627 36.2395 39.8674 35.9718C39.872 35.7041 39.9569 35.444 40.1112 35.2252V35.2252Z" fill="#39373A"/>
</svg>
