<svg width="100" height="100" viewBox="0 0 100 100" fill="none" xmlns="http://www.w3.org/2000/svg">
<rect width="100" height="100" fill="none"/>
<path d="M66.8797 44.8344V40.3497C66.8751 36.2523 65.2387 32.3241 62.3294 29.4268C59.4202 26.5295 55.4756 24.8999 51.3613 24.8953H48.4343C44.32 24.8999 40.3755 26.5295 37.4662 29.4268C34.5569 32.3241 32.9205 36.2523 32.9159 40.3497V44.8344C31.2686 44.9204 29.7169 45.6314 28.5798 46.8216C27.4426 48.0118 26.8065 49.5906 26.8021 51.2335V57.7706C26.8044 59.4716 27.4839 61.1022 28.6917 62.305C29.8995 63.5078 31.537 64.1846 33.245 64.1869H36.6483C36.9928 64.1869 37.3232 64.0505 37.5668 63.8079C37.8104 63.5653 37.9473 63.2364 37.9473 62.8933V46.0849C37.9473 45.7418 37.8104 45.4126 37.5668 45.17C37.3232 44.9274 36.9928 44.7913 36.6483 44.7913H35.5139V40.3497C35.5162 36.9378 36.8781 33.6663 39.3007 31.2537C41.7233 28.8412 45.0083 27.4848 48.4343 27.4826H51.3613C54.7866 27.4871 58.0703 28.8442 60.4924 31.2563C62.9144 33.6683 64.2771 36.9385 64.2817 40.3497V44.7913H63.1473C62.8028 44.7913 62.4724 44.9274 62.2288 45.17C61.9852 45.4126 61.8483 45.7418 61.8483 46.0849V62.876C61.8483 63.2191 61.9852 63.5481 62.2288 63.7907C62.4724 64.0333 62.8028 64.1697 63.1473 64.1697H64.2384V65.5839C64.2384 66.0868 64.139 66.5848 63.9458 67.0494C63.7526 67.5139 63.4693 67.936 63.1123 68.2916C62.7552 68.6472 62.3314 68.9292 61.8649 69.1216C61.3984 69.314 60.8984 69.4132 60.3935 69.4132H57.0681V68.499C57.0681 68.0415 56.8857 67.6027 56.5608 67.2793C56.236 66.9558 55.7955 66.7742 55.3361 66.7742H46.633C46.1018 66.7493 45.571 66.832 45.0728 67.0173C44.5746 67.2027 44.1194 67.4868 43.7346 67.8524C43.3498 68.218 43.0435 68.6576 42.8342 69.1445C42.625 69.6314 42.517 70.1555 42.517 70.6851C42.517 71.2148 42.625 71.739 42.8342 72.2259C43.0435 72.7128 43.3498 73.1523 43.7346 73.5179C44.1194 73.8835 44.5746 74.1676 45.0728 74.3529C45.571 74.5382 46.1018 74.6212 46.633 74.5963H55.3535C55.8128 74.5963 56.2534 74.4145 56.5782 74.091C56.903 73.7675 57.0854 73.3289 57.0854 72.8715V72.0091H60.4628C62.1595 71.9954 63.7824 71.3156 64.9789 70.1175C66.1755 68.9194 66.8492 67.2996 66.8537 65.6098V64.1783C68.5034 64.1009 70.0603 63.3956 71.2029 62.208C72.3454 61.0203 72.9864 59.441 72.9935 57.7963V51.2335C72.987 49.5912 72.3502 48.0136 71.2135 46.8239C70.0768 45.6342 68.5263 44.9225 66.8797 44.8344ZM35.3493 61.5824H33.245C32.2283 61.5824 31.2529 61.1813 30.5323 60.4669C29.8118 59.7526 29.4046 58.7832 29.4001 57.7706V51.2076C29.4001 50.192 29.8051 49.218 30.5262 48.4999C31.2473 47.7818 32.2253 47.3785 33.245 47.3785H35.3493V61.5824ZM54.4875 72.0091H46.633C46.4495 72.0238 46.2648 72.0005 46.0907 71.9406C45.9166 71.8808 45.7568 71.7858 45.6214 71.6615C45.4861 71.5371 45.378 71.386 45.3041 71.218C45.2302 71.05 45.1921 70.8686 45.1921 70.6851C45.1921 70.5017 45.2302 70.3202 45.3041 70.1522C45.378 69.9842 45.4861 69.8334 45.6214 69.709C45.7568 69.5847 45.9166 69.4894 46.0907 69.4296C46.2648 69.3698 46.4495 69.3466 46.633 69.3614H54.4875V72.0091ZM70.3956 57.7706C70.391 58.7848 69.9844 59.7559 69.2643 60.473C68.5443 61.1901 67.5689 61.5951 66.5506 61.5997H64.4463V47.3785H66.5506C67.5696 47.3808 68.5463 47.7848 69.2669 48.5024C69.9875 49.22 70.3933 50.1927 70.3956 51.2076V57.7706Z" fill="#39373A"/>
</svg>
