<svg width="100" height="100" viewBox="0 0 100 100" fill="none" xmlns="http://www.w3.org/2000/svg">
<rect width="100" height="100" fill="none"/>
<path d="M88.5274 66.3804L85.9758 65.8336C85.8587 65.4935 85.7226 65.1604 85.5679 64.8356L87.0086 62.7008C87.1747 62.4504 87.2489 62.1502 87.2188 61.8512C87.1888 61.5522 87.0562 61.2729 86.8436 61.0605C86.4184 60.6353 85.9758 60.1927 85.5505 59.8022C85.1253 59.4117 84.6828 59.0039 84.3183 58.6047C84.1098 58.3958 83.8363 58.2638 83.5431 58.2307C83.2498 58.1976 82.9539 58.2653 82.704 58.4225L80.5692 59.8282C80.2655 59.6894 79.9445 59.5506 79.5887 59.4204L79.0853 56.9296C79.025 56.6364 78.8649 56.3732 78.6323 56.1849C78.3996 55.9966 78.1089 55.8948 77.8096 55.8969H74.1647C73.8887 55.9245 73.6286 56.0396 73.4225 56.2253C73.2165 56.4111 73.0751 56.6579 73.0191 56.9296L72.507 59.4204C72.1599 59.5506 71.8389 59.6894 71.5352 59.8282L69.4004 58.4225C69.1492 58.2647 68.8519 58.1968 68.5571 58.2299C68.2623 58.263 67.9873 58.3951 67.7774 58.6047C67.3869 59.0039 66.9704 59.403 66.5452 59.8022L65.2521 61.0605C65.0409 61.2739 64.91 61.554 64.8815 61.8529C64.8531 62.1518 64.9288 62.4513 65.096 62.7008L66.5278 64.8356C66.3803 65.1481 66.2501 65.4777 66.1199 65.8336L63.5773 66.3804C63.2856 66.4436 63.0241 66.6046 62.8363 66.8366C62.6485 67.0685 62.5455 67.3576 62.5444 67.6561V71.1274C62.5494 71.4229 62.6542 71.7079 62.8416 71.9363C63.0291 72.1648 63.2884 72.3231 63.5773 72.3857L66.1199 72.9412C66.2501 73.2884 66.3803 73.6181 66.5278 73.9305L65.096 76.0827C64.9333 76.3305 64.8601 76.6266 64.8885 76.9217C64.9169 77.2168 65.0452 77.4933 65.2521 77.7056L66.5452 78.9639C66.9704 79.3631 67.4129 79.7622 67.7774 80.1614C67.9873 80.371 68.2623 80.5031 68.5571 80.5362C68.8519 80.5693 69.1492 80.5014 69.4004 80.3436L71.5439 78.9466C71.8563 79.1028 72.186 79.2329 72.5244 79.3631L73.0191 81.8365C73.0756 82.1314 73.2329 82.3975 73.4641 82.5891C73.6953 82.7807 73.9859 82.8858 74.2861 82.8865H77.8096C78.1109 82.8862 78.4028 82.7812 78.6354 82.5897C78.8681 82.3982 79.027 82.1321 79.0853 81.8365L79.5713 79.3631C79.9053 79.2416 80.2325 79.1026 80.5518 78.9466L82.704 80.3436C82.9539 80.5008 83.2498 80.5685 83.5431 80.5354C83.8363 80.5023 84.1098 80.3703 84.3183 80.1614C84.7175 79.7622 85.134 79.3631 85.5592 78.9639L86.8436 77.7056C87.0505 77.4936 87.1796 77.2177 87.2095 76.923C87.2394 76.6282 87.1686 76.332 87.0086 76.0827L85.5679 73.9305C85.721 73.608 85.8571 73.2779 85.9758 72.9412L88.5274 72.3857C88.816 72.3243 89.075 72.1661 89.2613 71.9372C89.4476 71.7083 89.5499 71.4225 89.5513 71.1274V67.6561C89.5538 67.358 89.4532 67.0682 89.2666 66.8357C89.08 66.6032 88.8189 66.4424 88.5274 66.3804ZM86.9652 70.0774L84.7696 70.5547C84.5388 70.6051 84.3265 70.7185 84.1564 70.8825C83.9863 71.0464 83.865 71.2543 83.8062 71.4831C83.6004 72.168 83.3088 72.8241 82.9384 73.4358C82.8198 73.6473 82.7626 73.8878 82.7733 74.1301C82.7841 74.3723 82.8623 74.6068 82.9992 74.807L84.2054 76.6295L83.7022 77.124L83.2161 77.6101L81.3678 76.3952C81.1658 76.2699 80.9327 76.2034 80.6951 76.2034C80.4574 76.2034 80.2245 76.2699 80.0226 76.3952C79.4167 76.75 78.7658 77.0214 78.0873 77.2022C77.8526 77.2634 77.6392 77.3881 77.4708 77.5626C77.3024 77.7371 77.1854 77.9547 77.1326 78.1914L76.7074 80.3178H75.3275L74.8936 78.1914C74.8443 77.9546 74.7296 77.7362 74.5624 77.5613C74.3952 77.3864 74.1822 77.2621 73.9478 77.2022C73.2693 77.0214 72.6184 76.75 72.0125 76.3952C71.8096 76.2682 71.575 76.2007 71.3356 76.2007C71.0962 76.2007 70.8616 76.2682 70.6587 76.3952L68.8188 77.6014L68.3243 77.1153L67.8208 76.6208L69.027 74.807C69.1637 74.6051 69.2417 74.3692 69.2525 74.1256C69.2632 73.882 69.2062 73.6402 69.0878 73.4271C68.7285 72.8152 68.4513 72.1587 68.2634 71.4745C68.2039 71.2445 68.0813 71.0359 67.9096 70.8719C67.7379 70.7078 67.5238 70.595 67.2914 70.546L65.096 70.0687V68.6801L67.2914 68.2201C67.5238 68.1711 67.7379 68.0583 67.9096 67.8942C68.0813 67.7302 68.2039 67.5216 68.2634 67.2917C68.4577 66.6014 68.7345 65.937 69.0878 65.313C69.2062 65.106 69.2632 64.8697 69.2525 64.6316C69.2417 64.3935 69.1635 64.1632 69.027 63.9678L67.8035 62.1279L68.2895 61.6681L68.8188 61.1647L70.6587 62.3535C70.8582 62.4853 71.0905 62.559 71.3295 62.5667C71.5684 62.5744 71.8049 62.5156 72.0125 62.397C72.6164 62.0341 73.2677 61.7567 73.9478 61.5726C74.1827 61.5136 74.3961 61.3896 74.5635 61.2145C74.7308 61.0395 74.8452 60.8207 74.8936 60.5834L75.3275 58.4744H76.7074L77.1326 60.5834C77.1836 60.8209 77.3 61.0395 77.4687 61.2143C77.6374 61.3891 77.8517 61.5132 78.0873 61.5726C78.7674 61.7567 79.4187 62.0341 80.0226 62.397C80.2269 62.5202 80.4609 62.5853 80.6995 62.5853C80.9381 62.5853 81.1722 62.5202 81.3764 62.397L83.2161 61.1995L83.7456 61.7027L84.2227 62.1627L82.9992 63.9939C82.8654 64.194 82.7897 64.4271 82.7805 64.6676C82.7713 64.9081 82.8289 65.1467 82.9471 65.3564C83.317 65.9745 83.6085 66.6361 83.8149 67.3262C83.8744 67.5561 83.997 67.7649 84.1687 67.929C84.3404 68.093 84.5546 68.2059 84.787 68.2548L86.9739 68.7148L86.9652 70.0774Z" fill="#3C3C3B"/>
<path d="M76.0481 63.7335C74.931 63.7352 73.8396 64.068 72.9117 64.6899C71.9838 65.3117 71.261 66.1945 70.8347 67.227C70.4085 68.2595 70.2977 69.3952 70.5167 70.4905C70.7357 71.5858 71.2746 72.5916 72.0651 73.3809C72.8555 74.1701 73.8621 74.7075 74.9578 74.9248C76.0534 75.1421 77.189 75.0295 78.2208 74.6017C79.2526 74.1738 80.1344 73.4497 80.7548 72.5209C81.3752 71.592 81.7063 70.5 81.7063 69.383C81.704 67.8839 81.107 66.447 80.0461 65.3878C78.9852 64.3285 77.5472 63.7335 76.0481 63.7335V63.7335ZM76.0481 72.4118C75.446 72.41 74.8579 72.2299 74.3582 71.8941C73.8584 71.5584 73.4693 71.0822 73.2401 70.5255C73.0109 69.9687 72.9517 69.3564 73.0702 68.7661C73.1887 68.1758 73.4795 67.6339 73.9058 67.2088C74.3322 66.7837 74.875 66.4942 75.4656 66.3774C76.0563 66.2606 76.6683 66.3214 77.2244 66.5522C77.7805 66.783 78.2558 67.1735 78.5901 67.6743C78.9244 68.175 79.1028 68.7636 79.1028 69.3657C79.1051 69.7679 79.0277 70.1667 78.8751 70.5388C78.7225 70.9109 78.4978 71.2492 78.2138 71.534C77.9298 71.8188 77.5921 72.0445 77.2203 72.1982C76.8486 72.3518 76.4503 72.4303 76.0481 72.4291V72.4118Z" fill="#3C3C3B"/>
<path fill-rule="evenodd" clip-rule="evenodd" d="M78.7564 30.3167C79.4878 31.0481 79.9006 32.0386 79.9052 33.073V40.8834C79.2539 41.594 78.8927 42.523 78.8927 43.4869C78.8927 44.4509 79.2539 45.3798 79.9052 46.0904V52.4507C79.06 52.252 78.1904 52.1164 77.3017 52.0491V46.0904C77.3017 45.7444 77.1649 45.4124 76.921 45.1669C76.6771 44.9214 76.346 44.7823 76 44.78H24C23.6539 44.7823 23.3228 44.9214 23.079 45.1669C22.8351 45.4124 22.6982 45.7444 22.6982 46.0904V53.9009C22.6982 54.2461 22.8355 54.5773 23.0796 54.8215C23.3237 55.0656 23.6547 55.2026 24 55.2026H66.0665C65.0165 55.9599 64.0564 56.8341 63.2053 57.8061H24C23.6547 57.8061 23.3237 57.9434 23.0796 58.1875C22.8355 58.4316 22.6982 58.7626 22.6982 59.1079V66.9183C22.6982 67.2636 22.8355 67.5948 23.0796 67.8389C23.3237 68.083 23.6547 68.2201 24 68.2201H59.0176C59.0059 68.4786 59 68.7386 59 69C59 69.6161 59.0328 70.2245 59.0967 70.8236H24C22.9648 70.819 21.9733 70.4064 21.2406 69.6752C20.5078 68.9441 20.0929 67.9534 20.0861 66.9183V59.1079C20.0861 59.1079 21.1151 58.0087 21.11 56.5044C21.105 55 20.0861 53.9009 20.0861 53.9009V46.0904C20.7411 45.3817 21.105 44.5787 21.105 43.4869C21.105 42.3951 20.7411 41.5922 20.0861 40.8834V33.073C20.0906 32.0371 20.5048 31.0452 21.238 30.3135C21.9713 29.5819 22.9641 29.17 24 29.1677H76C77.0343 29.1723 78.0251 29.5853 78.7564 30.3167ZM76.9203 41.804C77.1645 41.5599 77.3017 41.2287 77.3017 40.8834V33.073C77.3017 32.7277 77.1645 32.3967 76.9203 32.1526C76.6762 31.9085 76.3452 31.7712 76 31.7712H24C23.6547 31.7712 23.3237 31.9085 23.0796 32.1526C22.8355 32.3967 22.6982 32.7277 22.6982 33.073V40.8834C22.6982 41.2287 22.8355 41.5599 23.0796 41.804C23.3237 42.0481 23.6547 42.1852 24 42.1852H76C76.3452 42.1852 76.6762 42.0481 76.9203 41.804Z" fill="#3C3C3B"/>
<path d="M29.1686 34.8086C28.5934 34.8086 28.0418 35.0372 27.6351 35.4439C27.2284 35.8506 27 36.402 27 36.9771C27 37.5523 27.2284 38.1039 27.6351 38.5106C28.0418 38.9173 28.5934 39.1457 29.1686 39.1457C29.7437 39.1457 30.2953 38.9173 30.702 38.5106C31.1087 38.1039 31.3371 37.5523 31.3371 36.9771C31.3371 36.402 31.1087 35.8506 30.702 35.4439C30.2953 35.0372 29.7437 34.8086 29.1686 34.8086Z" fill="#3C3C3B"/>
<path d="M35.6946 34.8086C35.1195 34.8086 34.5679 35.0372 34.1612 35.4439C33.7545 35.8506 33.5261 36.402 33.5261 36.9771C33.5261 37.5523 33.7545 38.1039 34.1612 38.5106C34.5679 38.9173 35.1195 39.1457 35.6946 39.1457C36.2698 39.1457 36.8214 38.9173 37.2281 38.5106C37.6348 38.1039 37.8632 37.5523 37.8632 36.9771C37.8632 36.402 37.6348 35.8506 37.2281 35.4439C36.8214 35.0372 36.2698 34.8086 35.6946 34.8086Z" fill="#3C3C3B"/>
<path d="M29.1686 47.8347C28.5934 47.8347 28.0418 48.0634 27.6351 48.47C27.2284 48.8767 27 49.4281 27 50.0033C27 50.5784 27.2284 51.1301 27.6351 51.5367C28.0418 51.9434 28.5934 52.1719 29.1686 52.1719C29.7437 52.1719 30.2953 51.9434 30.702 51.5367C31.1087 51.1301 31.3371 50.5784 31.3371 50.0033C31.3371 49.4281 31.1087 48.8767 30.702 48.47C30.2953 48.0634 29.7437 47.8347 29.1686 47.8347Z" fill="#3C3C3B"/>
<path d="M35.6946 47.8347C35.1195 47.8347 34.5679 48.0634 34.1612 48.47C33.7545 48.8767 33.5261 49.4281 33.5261 50.0033C33.5261 50.5784 33.7545 51.1301 34.1612 51.5367C34.5679 51.9434 35.1195 52.1719 35.6946 52.1719C36.2698 52.1719 36.8214 51.9434 37.2281 51.5367C37.6348 51.1301 37.8632 50.5784 37.8632 50.0033C37.8632 49.4281 37.6348 48.8767 37.2281 48.47C36.8214 48.0634 36.2698 47.8347 35.6946 47.8347Z" fill="#3C3C3B"/>
<path d="M29.1686 60.8522C28.5934 60.8522 28.0418 61.0808 27.6351 61.4875C27.2284 61.8942 27 62.4456 27 63.0208C26.9989 63.3059 27.0543 63.5884 27.1629 63.852C27.2714 64.1156 27.431 64.3552 27.6326 64.5568C27.8342 64.7584 28.0738 64.9181 28.3374 65.0267C28.601 65.1353 28.8835 65.1905 29.1686 65.1894V65.1894C29.4537 65.1905 29.7362 65.1353 29.9998 65.0267C30.2634 64.9181 30.503 64.7584 30.7046 64.5568C30.9062 64.3552 31.0659 64.1156 31.1745 63.852C31.2831 63.5884 31.3383 63.3059 31.3372 63.0208C31.3372 62.4456 31.1087 61.8942 30.702 61.4875C30.2954 61.0808 29.7437 60.8522 29.1686 60.8522Z" fill="#3C3C3B"/>
<path d="M35.6947 60.8522C35.1195 60.8522 34.5679 61.0808 34.1612 61.4875C33.7545 61.8942 33.5261 62.4456 33.5261 63.0208C33.5249 63.3059 33.5801 63.5884 33.6887 63.852C33.7973 64.1156 33.9571 64.3552 34.1587 64.5568C34.3602 64.7584 34.5998 64.9181 34.8634 65.0267C35.1271 65.1353 35.4095 65.1905 35.6947 65.1894V65.1894C35.9798 65.1905 36.2622 65.1353 36.5259 65.0267C36.7895 64.9181 37.0291 64.7584 37.2307 64.5568C37.4323 64.3552 37.592 64.1156 37.7006 63.852C37.8092 63.5884 37.8644 63.3059 37.8632 63.0208C37.8632 62.4456 37.6348 61.8942 37.2281 61.4875C36.8214 61.0808 36.2698 60.8522 35.6947 60.8522Z" fill="#3C3C3B"/>
</svg>
