<svg width="100" height="100" viewBox="0 0 100 100" fill="none" xmlns="http://www.w3.org/2000/svg">
<rect width="100" height="100" fill="none"/>
<path d="M50.0517 40.4235C48.1489 40.4132 46.2861 40.9686 44.6998 42.0193C43.1134 43.07 41.8751 44.5686 41.1422 46.3246C40.4093 48.0805 40.2148 50.0146 40.5835 51.8813C40.9522 53.748 41.8674 55.463 43.2129 56.8084C44.5583 58.1539 46.2732 59.0691 48.1399 59.4378C50.0067 59.8064 51.9408 59.612 53.6967 58.879C55.4527 58.1461 56.9513 56.9079 58.002 55.3215C59.0527 53.7351 59.6081 51.8723 59.5978 49.9696C59.5819 47.4427 58.5709 45.0239 56.7841 43.2371C54.9973 41.4503 52.5785 40.4394 50.0517 40.4235V40.4235ZM50.0517 57.3462C48.6013 57.3462 47.1835 56.9161 45.9776 56.1103C44.7716 55.3045 43.8317 54.1592 43.2766 52.8193C42.7216 51.4793 42.5765 50.0048 42.8594 48.5823C43.1424 47.1598 43.8407 45.8532 44.8663 44.8277C45.8919 43.8021 47.1986 43.1038 48.6211 42.8208C50.0436 42.5379 51.518 42.683 52.8579 43.238C54.1979 43.793 55.3432 44.733 56.1489 45.9389C56.9547 47.1449 57.3848 48.5627 57.3848 50.013C57.3711 51.9497 56.5927 53.8023 55.2192 55.1677C53.8457 56.5331 51.9884 57.3005 50.0517 57.3027V57.3462Z" fill="#3C3C3B"/>
<path d="M69.4481 46.4984L65.1089 44.9449C65.0608 44.9263 65.0167 44.8983 64.9795 44.8625C64.9422 44.8268 64.9126 44.784 64.892 44.7367L64.2669 43.2093C64.2284 43.1147 64.2284 43.0089 64.2669 42.9143L66.263 38.7227C66.4937 38.2369 66.5685 37.6917 66.4768 37.1618C66.3851 36.6319 66.1316 36.1432 65.7511 35.7632L64.2669 34.288C63.7792 33.7996 63.1175 33.525 62.4273 33.5244C62.0398 33.5219 61.6568 33.608 61.3077 33.7761L57.116 35.7632C57.0648 35.7761 57.0112 35.7761 56.9599 35.7632C56.9169 35.7714 56.8728 35.7714 56.8298 35.7632L55.2937 35.1384C55.2025 35.0935 55.1313 35.0161 55.0941 34.9215L53.532 30.5823C53.353 30.0759 53.0216 29.6373 52.5834 29.3265C52.1453 29.0158 51.6218 28.8482 51.0847 28.8466H48.9846C48.446 28.8464 47.9206 29.0131 47.4807 29.324C47.0408 29.6349 46.7081 30.0745 46.5286 30.5823L44.9751 34.9215C44.9564 34.9696 44.9284 35.0137 44.8927 35.0509C44.8569 35.0881 44.8142 35.1178 44.7668 35.1384L43.2481 35.7632C43.2022 35.7715 43.1553 35.7715 43.1094 35.7632C43.0582 35.7773 43.0043 35.7773 42.9532 35.7632L38.7615 33.7761C38.2758 33.5453 37.7305 33.4706 37.2007 33.5623C36.6708 33.654 36.1823 33.9074 35.8023 34.288L34.3183 35.7632C33.9378 36.1432 33.6841 36.6319 33.5925 37.1618C33.5008 37.6917 33.5755 38.2369 33.8062 38.7227L35.8023 42.9143C35.8409 43.0089 35.8409 43.1147 35.8023 43.2093L35.1688 44.7367C35.151 44.7842 35.1232 44.8274 35.0872 44.8634C35.0513 44.8993 35.0081 44.9271 34.9605 44.9449L30.5779 46.4984C30.0701 46.6779 29.6305 47.0105 29.3196 47.4503C29.0088 47.8902 28.842 48.4158 28.8423 48.9544V51.0458C28.842 51.5844 29.0088 52.1098 29.3196 52.5497C29.6305 52.9895 30.0701 53.3223 30.5779 53.5018L34.9171 55.0553C34.966 55.0726 35.0106 55.1001 35.048 55.136C35.0854 55.1719 35.1148 55.2154 35.1341 55.2635L35.7675 56.7909C35.8061 56.8855 35.8061 56.9913 35.7675 57.0859L33.7715 61.2775C33.5427 61.7622 33.4693 62.3057 33.5609 62.8337C33.6525 63.3618 33.9049 63.8488 34.2836 64.2281L35.7675 65.712C36.2553 66.2004 36.917 66.4752 37.6072 66.4758C37.9943 66.4742 38.3763 66.3883 38.7268 66.2241L42.9185 64.2281C42.97 64.2176 43.0231 64.2176 43.0746 64.2281H43.2049L44.7408 64.8616C44.832 64.9065 44.9034 64.9839 44.9406 65.0785L46.4938 69.4177C46.6733 69.9255 47.0061 70.3651 47.446 70.676C47.8858 70.9868 48.4112 71.1536 48.9498 71.1533H51.0499C51.587 71.1518 52.1106 70.9844 52.5487 70.6737C52.9868 70.3629 53.3182 69.9241 53.4973 69.4177L55.0594 65.0785C55.0762 65.0307 55.1026 64.9868 55.1369 64.9495C55.1712 64.9122 55.2127 64.8823 55.259 64.8616L56.7864 64.2368C56.8319 64.225 56.8796 64.225 56.9251 64.2368C56.9769 64.2286 57.0297 64.2286 57.0815 64.2368L61.273 66.2328C61.6221 66.4009 62.005 66.487 62.3925 66.4845C63.0828 66.4839 63.7446 66.2091 64.2324 65.7207L65.7164 64.2454C66.0955 63.8645 66.3472 63.3755 66.4374 62.8456C66.5275 62.3158 66.4514 61.7711 66.2196 61.2862L64.2324 57.0945C64.1938 57 64.1938 56.8942 64.2324 56.7996L64.8659 55.2722C64.8841 55.2235 64.9131 55.1792 64.9507 55.1432C64.9882 55.1071 65.0334 55.0802 65.0829 55.064L69.422 53.5105C69.9298 53.331 70.3695 52.9982 70.6803 52.5584C70.9912 52.1185 71.158 51.5931 71.1577 51.0545V48.9631C71.1617 48.4261 70.9995 47.9009 70.6935 47.4596C70.3874 47.0184 69.9524 46.6827 69.4481 46.4984V46.4984ZM68.5802 51.0458L64.2411 52.6079C63.8507 52.7477 63.4942 52.9683 63.1951 53.2554C62.896 53.5426 62.661 53.8897 62.5054 54.2741V54.2741L61.8804 55.7928C61.7205 56.1766 61.6432 56.5899 61.6537 57.0056C61.6642 57.4212 61.7622 57.8301 61.9412 58.2054L63.9286 62.3884L62.4533 63.8723L58.2616 61.885C57.8638 61.6926 57.4279 61.5917 56.9859 61.5898C56.5989 61.5918 56.2158 61.6685 55.8577 61.8155L54.3303 62.449C53.9471 62.6064 53.6011 62.8421 53.3142 63.141C53.0273 63.4398 52.8058 63.7953 52.6642 64.1846L51.1107 68.5238H49.0106L47.4572 64.1846C47.3155 63.7953 47.0941 63.4398 46.8072 63.141C46.5202 62.8421 46.1743 62.6064 45.791 62.449L44.2636 61.8242C43.9074 61.6713 43.5231 61.5944 43.1354 61.5985C42.6953 61.5994 42.2604 61.6942 41.8597 61.8763L37.668 63.8723L36.1841 62.3884L38.1801 58.2054C38.3571 57.8295 38.4538 57.4209 38.4643 57.0056C38.4747 56.5902 38.3986 56.1771 38.2407 55.7928L37.6159 54.2654C37.4567 53.8833 37.2205 53.5381 36.9218 53.2514C36.6232 52.9647 36.2686 52.7428 35.8803 52.5992L31.5411 51.0458V48.9544L35.8803 47.3923C36.2699 47.2511 36.6257 47.0299 36.9246 46.7429C37.2235 46.4559 37.459 46.1096 37.6159 45.7261L38.2407 44.2074C38.3986 43.8231 38.4747 43.41 38.4643 42.9946C38.4538 42.5793 38.3571 42.1707 38.1801 41.7948L36.1841 37.6031L37.668 36.1279L41.8597 38.1152C42.2582 38.3049 42.6941 38.4026 43.1354 38.4015C43.522 38.4026 43.9051 38.329 44.2636 38.1845L45.791 37.551C46.1737 37.3927 46.5193 37.1567 46.8061 36.858C47.0929 36.5592 47.3146 36.2042 47.4572 35.8153L49.0106 31.4762H51.1107L52.6642 35.8153C52.8077 36.2036 53.0296 36.5583 53.3163 36.8569C53.603 37.1555 53.9482 37.3918 54.3303 37.551L55.8577 38.1758C56.2145 38.327 56.5984 38.4038 56.9859 38.4015C57.4272 38.4026 57.8632 38.3049 58.2616 38.1152L62.4533 36.1279L63.9373 37.6031L61.9412 41.8035C61.7618 42.1771 61.6638 42.5845 61.6533 42.9989C61.6428 43.4132 61.7201 43.8252 61.8804 44.2074L62.5054 45.7261C62.661 46.1105 62.896 46.4574 63.1951 46.7446C63.4942 47.0317 63.8507 47.2525 64.2411 47.3923L68.5802 48.9544V51.0458Z" fill="#3C3C3B"/>
</svg>
