<svg width="100" height="100" viewBox="0 0 100 100" fill="none" xmlns="http://www.w3.org/2000/svg">
<rect width="100" height="100" fill="none"/>
<path d="M72.3715 30.6496C72.0863 30.6484 71.8034 30.7039 71.5397 30.8125C71.2759 30.9211 71.0365 31.081 70.8348 31.2827C70.6331 31.4844 70.4733 31.7238 70.3646 31.9876C70.256 32.2513 70.2008 32.5339 70.2019 32.8192V32.8192C70.2019 33.2483 70.329 33.6677 70.5674 34.0245C70.8058 34.3813 71.1447 34.6595 71.5412 34.8237C71.9376 34.9879 72.3738 35.0309 72.7946 34.9472C73.2155 34.8635 73.602 34.6568 73.9055 34.3533C74.2089 34.0499 74.4156 33.6633 74.4993 33.2425C74.5831 32.8216 74.54 32.3855 74.3758 31.989C74.2116 31.5926 73.9336 31.2537 73.5768 31.0153C73.2201 30.7769 72.8006 30.6496 72.3715 30.6496Z" fill="#3C3C3B"/>
<path d="M65.8627 30.6496C65.5775 30.6484 65.2946 30.7039 65.0309 30.8125C64.7672 30.9211 64.5277 31.081 64.326 31.2827C64.1243 31.4844 63.9645 31.7238 63.8559 31.9876C63.7472 32.2513 63.692 32.5339 63.6931 32.8192V32.8192C63.6931 33.2483 63.8202 33.6677 64.0586 34.0245C64.297 34.3813 64.6359 34.6595 65.0324 34.8237C65.4288 34.9879 65.865 35.0309 66.2858 34.9472C66.7067 34.8635 67.0932 34.6568 67.3967 34.3533C67.7001 34.0499 67.9068 33.6633 67.9905 33.2425C68.0743 32.8216 68.0312 32.3855 67.867 31.989C67.7028 31.5926 67.4248 31.2537 67.068 31.0153C66.7113 30.7769 66.2918 30.6496 65.8627 30.6496Z" fill="#3C3C3B"/>
<path d="M59.354 30.6496C58.9249 30.6496 58.5055 30.7769 58.1487 31.0153C57.7919 31.2537 57.5137 31.5926 57.3495 31.989C57.1853 32.3855 57.1423 32.8216 57.226 33.2425C57.3097 33.6633 57.5165 34.0499 57.8199 34.3533C58.1233 34.6568 58.5099 34.8635 58.9307 34.9472C59.3516 35.0309 59.7877 34.9879 60.1842 34.8237C60.5806 34.6595 60.9195 34.3813 61.1579 34.0245C61.3963 33.6677 61.5236 33.2483 61.5236 32.8192C61.5248 32.5339 61.4693 32.2513 61.3607 31.9876C61.2521 31.7238 61.0922 31.4844 60.8905 31.2827C60.6889 31.081 60.4494 30.9211 60.1856 30.8125C59.9219 30.7039 59.6393 30.6484 59.354 30.6496V30.6496Z" fill="#3C3C3B"/>
<path d="M76.3547 25H24.207C22.826 25 21.5016 25.5488 20.5251 26.5253C19.5486 27.5018 19 28.826 19 30.207V69.793C19 71.174 19.5486 72.4984 20.5251 73.4749C21.5016 74.4514 22.826 75 24.207 75H76.3547C77.7357 75 79.0601 74.4514 80.0366 73.4749C81.0131 72.4984 81.5617 71.174 81.5617 69.793V30.207C81.5617 28.826 81.0131 27.5018 80.0366 26.5253C79.0601 25.5488 77.7357 25 76.3547 25ZM21.6035 30.207C21.6035 29.5165 21.8778 28.8545 22.366 28.3662C22.8543 27.878 23.5165 27.6035 24.207 27.6035H76.3547C77.0452 27.6035 77.7074 27.878 78.1957 28.3662C78.6839 28.8545 78.9582 29.5165 78.9582 30.207V38.0174H21.6035V30.207ZM78.9582 69.793C78.9582 70.4835 78.6839 71.1457 78.1957 71.634C77.7074 72.1222 77.0452 72.3965 76.3547 72.3965H24.207C23.5165 72.3965 22.8543 72.1222 22.366 71.634C21.8778 71.1457 21.6035 70.4835 21.6035 69.793V40.6383H78.9582V69.793Z" fill="#3C3C3B"/>
<path d="M38.0456 63.0924C38.2477 63.3734 38.5529 63.563 38.8944 63.6199C39.2358 63.6768 39.5859 63.5963 39.8681 63.396L45.5177 56.8786C45.6861 56.7581 45.8233 56.5993 45.918 56.4152C46.0126 56.2311 46.062 56.0269 46.062 55.8198C46.062 55.6128 46.0126 55.4088 45.918 55.2247C45.8233 55.0405 45.6861 54.8816 45.5177 54.7611L39.8681 48.2437C39.6562 48.0956 39.4062 48.0112 39.1478 48.0007C38.8685 47.9917 38.5939 48.0729 38.3643 48.232C38.1347 48.3912 37.9623 48.6201 37.8727 48.8848C37.7832 49.1495 37.7812 49.4359 37.867 49.7018C37.9529 49.9677 38.122 50.199 38.3494 50.3614L42.9577 55.8198L38.3494 61.2785C38.0689 61.479 37.8795 61.7826 37.8225 62.1226C37.7656 62.4627 37.8457 62.8114 38.0456 63.0924V63.0924Z" fill="#3C3C3B"/>
<path d="M49.3017 63.6035H57.5809C57.9261 63.6035 58.2573 63.4664 58.5015 63.2223C58.7456 62.9782 58.8826 62.647 58.8826 62.3017C58.8826 61.9565 58.7456 61.6255 58.5015 61.3814C58.2573 61.1372 57.9261 61 57.5809 61H49.3017C48.9565 61 48.6255 61.1372 48.3814 61.3814C48.1372 61.6255 48 61.9565 48 62.3017C48 62.647 48.1372 62.9782 48.3814 63.2223C48.6255 63.4664 48.9565 63.6035 49.3017 63.6035Z" fill="#3C3C3B"/>
</svg>
