<svg width="100" height="100" viewBox="0 0 100 100" fill="none" xmlns="http://www.w3.org/2000/svg">
<rect width="100" height="100" fill="none"/>
<path d="M64.5 18.5L35.5 18.5C34.8095 18.5 34.1473 18.7743 33.659 19.2625C33.1708 19.7508 32.8965 20.413 32.8965 21.1035V78.8965C32.8965 79.587 33.1708 80.2492 33.659 80.7375C34.1473 81.2257 34.8095 81.5 35.5 81.5H64.5C65.1905 81.5 65.8527 81.2257 66.341 80.7375C66.8292 80.2492 67.1035 79.587 67.1035 78.8965V21.1035C67.1035 20.413 66.8292 19.7508 66.341 19.2625C65.8527 18.7743 65.1905 18.5 64.5 18.5ZM35.5 21.1035H64.5V38.0957H35.5V21.1035ZM35.5 78.8965V40.7076H64.5V78.8965H35.5Z" fill="#3C3C3B"/>
<path d="M40.3711 44.6389C40.025 44.6389 39.693 44.7758 39.4475 45.0197C39.202 45.2636 39.0629 45.5946 39.0606 45.9407V52.4755C39.0394 52.659 39.0572 52.8451 39.113 53.0212C39.1687 53.1974 39.261 53.3598 39.3839 53.4977C39.5069 53.6357 39.6577 53.7463 39.8263 53.8219C39.9949 53.8975 40.1776 53.9365 40.3624 53.9365C40.5472 53.9365 40.73 53.8975 40.8986 53.8219C41.0672 53.7463 41.2179 53.6357 41.3408 53.4977C41.4637 53.3598 41.5561 53.1974 41.6118 53.0212C41.6675 52.8451 41.6853 52.659 41.6641 52.4755V45.9407C41.6641 45.5969 41.5282 45.2672 41.2859 45.0233C41.0437 44.7794 40.7148 44.6412 40.3711 44.6389Z" fill="#3C3C3B"/>
<path d="M40.3711 25.0348C40.025 25.0348 39.693 25.1716 39.4475 25.4155C39.202 25.6594 39.0629 25.9905 39.0606 26.3365V32.8713C39.0394 33.0549 39.0572 33.2407 39.113 33.4169C39.1687 33.5931 39.261 33.7556 39.3839 33.8936C39.5069 34.0316 39.6577 34.1419 39.8263 34.2175C39.9949 34.2931 40.1776 34.3322 40.3624 34.3322C40.5472 34.3322 40.73 34.2931 40.8986 34.2175C41.0672 34.1419 41.2179 34.0316 41.3408 33.8936C41.4637 33.7556 41.5561 33.5931 41.6118 33.4169C41.6675 33.2407 41.6853 33.0549 41.6641 32.8713V26.3365C41.6641 25.9928 41.5282 25.663 41.2859 25.4191C41.0437 25.1752 40.7148 25.0371 40.3711 25.0348V25.0348Z" fill="#3C3C3B"/>
<path d="M66.2865 6.66598C65.956 6.68966 65.6467 6.83771 65.421 7.08022C65.1952 7.32274 65.0696 7.64165 65.0696 7.97298C65.0696 8.30431 65.1952 8.62352 65.421 8.86604C65.6467 9.10855 65.9558 9.25644 66.2863 9.28013C68.7266 9.2832 71.0661 10.254 72.7916 11.9795C74.5172 13.7051 75.4879 16.0445 75.491 18.4848C75.5147 18.8153 75.6627 19.1246 75.9053 19.3503C76.1478 19.5761 76.4668 19.7015 76.7982 19.7015C77.1295 19.7015 77.4486 19.5761 77.6911 19.3503C77.9336 19.1246 78.0816 18.8153 78.1053 18.4848C78.0982 15.3525 76.8505 12.3505 74.6356 10.1356C72.4207 7.92065 69.4188 6.67311 66.2865 6.66598V6.66598Z" fill="#3C3C3B"/>
<path d="M66.0255 12.1307C65.6884 12.1426 65.3691 12.2849 65.1348 12.5275C64.9006 12.7702 64.7697 13.0944 64.7697 13.4317C64.7697 13.769 64.9006 14.0932 65.1348 14.3358C65.3691 14.5785 65.6883 14.7206 66.0253 14.7325C67.0825 14.7607 68.0886 15.1933 68.8363 15.9411C69.5841 16.6889 70.0166 17.6948 70.0448 18.752C70.0567 19.089 70.199 19.4084 70.4416 19.6426C70.6843 19.8769 71.0085 20.0077 71.3458 20.0077C71.6831 20.0077 72.0072 19.8769 72.2499 19.6426C72.4926 19.4084 72.6349 19.0891 72.6468 18.752C72.6091 17.0077 71.8992 15.3455 70.6656 14.1119C69.4319 12.8782 67.7697 12.1684 66.0255 12.1307V12.1307Z" fill="#3C3C3B"/>
</svg>
