<svg width="100" height="100" viewBox="0 0 100 100" fill="none" xmlns="http://www.w3.org/2000/svg">
<rect width="100" height="100" fill="none"/>
<path d="M60.8868 81.7581H39.1131C37.3838 81.7558 35.7261 81.0672 34.5041 79.8436C33.2821 78.62 32.5957 76.9613 32.5957 75.232V24.7591C32.5957 23.0306 33.2822 21.3729 34.5045 20.1507C35.7267 18.9284 37.3846 18.2417 39.1131 18.2417H60.8868C62.6154 18.2417 64.2732 18.9284 65.4955 20.1507C66.7177 21.3729 67.4043 23.0306 67.4043 24.7591V75.232C67.4043 76.9613 66.7179 78.62 65.4959 79.8436C64.2739 81.0672 62.6162 81.7558 60.8868 81.7581V81.7581ZM39.1131 20.8539C38.5996 20.8527 38.0909 20.9528 37.6161 21.1486C37.1412 21.3443 36.7096 21.6318 36.3461 21.9946C35.9825 22.3573 35.6941 22.7883 35.4973 23.2626C35.3005 23.737 35.1992 24.2455 35.1992 24.7591V75.232C35.1992 76.27 35.6115 77.2657 36.3455 77.9997C37.0795 78.7337 38.0751 79.1459 39.1131 79.1459H60.8868C61.9249 79.1459 62.9205 78.7337 63.6545 77.9997C64.3885 77.2657 64.8008 76.27 64.8008 75.232V24.7591C64.8008 24.2455 64.6995 23.737 64.5027 23.2626C64.3059 22.7883 64.0175 22.3573 63.6539 21.9946C63.2903 21.6318 62.859 21.3443 62.3841 21.1486C61.9093 20.9528 61.4004 20.8527 60.8868 20.8539H39.1131Z" fill="#3C3C3B"/>
<path d="M54.1351 26.9287C54.4804 26.9287 54.8116 26.7916 55.0557 26.5475C55.2998 26.3034 55.4369 25.9722 55.4369 25.6269C55.4369 25.2817 55.2998 24.9507 55.0557 24.7066C54.8116 24.4624 54.4804 24.3252 54.1351 24.3252H45.8649C45.5196 24.3252 45.1884 24.4624 44.9443 24.7066C44.7002 24.9507 44.5631 25.2817 44.5631 25.6269C44.5631 25.9722 44.7002 26.3034 44.9443 26.5475C45.1884 26.7916 45.5196 26.9287 45.8649 26.9287H54.1351Z" fill="#3C3C3B"/>
<path d="M41.0918 74.3728C41.0918 74.7181 41.2288 75.0493 41.473 75.2934C41.7171 75.5376 42.0483 75.6746 42.3935 75.6746H57.6064C57.9516 75.6746 58.2829 75.5376 58.527 75.2934C58.7711 75.0493 58.9082 74.7181 58.9082 74.3728C58.9082 74.0276 58.7711 73.6966 58.527 73.4525C58.2829 73.2084 57.9516 73.0711 57.6064 73.0711H42.3935C42.0483 73.0711 41.7171 73.2084 41.473 73.4525C41.2288 73.6966 41.0918 74.0276 41.0918 74.3728Z" fill="#3C3C3B"/>
</svg>
