<svg width="100" height="100" viewBox="0 0 100 100" fill="none" xmlns="http://www.w3.org/2000/svg">
<rect width="100" height="100" fill="none"/>
<path d="M72.3716 30.6496C72.0863 30.6484 71.8035 30.7039 71.5397 30.8125C71.276 30.9211 71.0365 31.081 70.8348 31.2827C70.6332 31.4844 70.4733 31.7238 70.3647 31.9876C70.2561 32.2513 70.2008 32.5339 70.202 32.8192V32.8192C70.202 33.2483 70.3291 33.6677 70.5675 34.0245C70.8059 34.3813 71.1448 34.6595 71.5412 34.8237C71.9377 34.9879 72.3738 35.0309 72.7947 34.9472C73.2155 34.8635 73.6021 34.6568 73.9055 34.3533C74.2089 34.0499 74.4157 33.6633 74.4994 33.2425C74.5831 32.8216 74.5401 32.3855 74.3759 31.989C74.2117 31.5926 73.9337 31.2537 73.5769 31.0153C73.2201 30.7769 72.8007 30.6496 72.3716 30.6496Z" fill="#3C3C3B"/>
<path d="M65.8628 30.6496C65.5775 30.6484 65.2947 30.7039 65.031 30.8125C64.7672 30.9211 64.5277 31.081 64.3261 31.2827C64.1244 31.4844 63.9645 31.7238 63.8559 31.9876C63.7473 32.2513 63.692 32.5339 63.6932 32.8192V32.8192C63.6932 33.2483 63.8203 33.6677 64.0587 34.0245C64.2971 34.3813 64.636 34.6595 65.0324 34.8237C65.4289 34.9879 65.865 35.0309 66.2859 34.9472C66.7067 34.8635 67.0933 34.6568 67.3967 34.3533C67.7001 34.0499 67.9069 33.6633 67.9906 33.2425C68.0743 32.8216 68.0313 32.3855 67.8671 31.989C67.7029 31.5926 67.4249 31.2537 67.0681 31.0153C66.7113 30.7769 66.2919 30.6496 65.8628 30.6496Z" fill="#3C3C3B"/>
<path d="M59.354 30.6496C58.9249 30.6496 58.5054 30.7769 58.1486 31.0153C57.7919 31.2537 57.5137 31.5926 57.3495 31.989C57.1852 32.3855 57.1422 32.8216 57.2259 33.2425C57.3097 33.6633 57.5164 34.0499 57.8198 34.3533C58.1232 34.6568 58.5098 34.8635 58.9307 34.9472C59.3515 35.0309 59.7877 34.9879 60.1841 34.8237C60.5805 34.6595 60.9195 34.3813 61.1579 34.0245C61.3963 33.6677 61.5236 33.2483 61.5236 32.8192C61.5247 32.5339 61.4693 32.2513 61.3606 31.9876C61.252 31.7238 61.0922 31.4844 60.8905 31.2827C60.6888 31.081 60.4493 30.9211 60.1856 30.8125C59.9218 30.7039 59.6392 30.6484 59.354 30.6496V30.6496Z" fill="#3C3C3B"/>
<path fill-rule="evenodd" clip-rule="evenodd" d="M24.207 25H76.3547C77.7357 25 79.0601 25.5488 80.0366 26.5253C81.0131 27.5018 81.5617 28.826 81.5617 30.207V51.1491C80.7252 50.8185 79.8552 50.5543 78.9582 50.363V40.6383H21.6035V69.793C21.6035 70.4835 21.8778 71.1457 22.366 71.634C22.8543 72.1222 23.5165 72.3965 24.207 72.3965H60.0848C60.4328 73.3057 60.8589 74.1763 61.355 75H24.207C22.826 75 21.5016 74.4514 20.5251 73.4749C19.5486 72.4984 19 71.174 19 69.793V30.207C19 28.826 19.5486 27.5018 20.5251 26.5253C21.5016 25.5488 22.826 25 24.207 25ZM22.366 28.3662C21.8778 28.8545 21.6035 29.5165 21.6035 30.207V38.0174H78.9582V30.207C78.9582 29.5165 78.6839 28.8545 78.1957 28.3662C77.7074 27.878 77.0452 27.6035 76.3547 27.6035H24.207C23.5165 27.6035 22.8543 27.878 22.366 28.3662Z" fill="#3C3C3B"/>
<path d="M84.348 57.6703C82.3048 55.6229 79.6148 54.3475 76.7366 54.0613C73.8583 53.7752 70.97 54.496 68.5637 56.101C66.1575 57.706 64.3822 60.096 63.5407 62.8633C62.6992 65.6307 62.8434 68.604 63.9488 71.2769C65.0542 73.9498 67.0524 76.1567 69.6027 77.5213C72.1531 78.8859 75.0976 79.324 77.9346 78.7606C80.7717 78.1972 83.3256 76.6673 85.161 74.4318C86.9964 72.1963 87.9997 69.3935 87.9999 66.5011C88.0058 64.8607 87.6861 63.2356 87.0592 61.7197C86.4323 60.2039 85.5107 58.8274 84.348 57.6703V57.6703ZM68.5083 59.5007C68.8888 59.1111 69.3042 58.7569 69.7489 58.4424C68.7468 60.562 68.1718 62.8582 68.0572 65.1999H65.689C65.9707 63.0401 66.9624 61.0352 68.5083 59.5007V59.5007ZM68.5083 73.5013C66.9688 71.9598 65.9809 69.9537 65.6977 67.7936H68.0658C68.1805 70.1353 68.7554 72.4315 69.7575 74.5511C69.312 74.2375 68.8939 73.8862 68.5083 73.5013ZM74.2162 76.0083C73.3838 75.4514 72.7086 74.6896 72.2557 73.7963C71.3005 71.932 70.7534 69.8858 70.6508 67.7936H74.1988L74.2162 76.0083ZM74.2162 65.1999H70.6682C70.7682 63.1101 71.3156 61.0659 72.2731 59.2057C72.7186 58.3104 73.388 57.5456 74.2162 56.9852V65.1999ZM82.5091 59.5007C84.0517 61.0364 85.0403 63.0412 85.3196 65.1999H82.9428C82.8352 62.8582 82.263 60.5611 81.2598 58.4424C81.7092 58.7542 82.1277 59.1086 82.5091 59.5007V59.5007ZM78.7529 73.7963C78.3071 74.6917 77.6341 75.4544 76.8012 76.0083V67.7936H80.3578C80.2553 69.8858 79.7081 71.932 78.7529 73.7963V73.7963ZM76.8012 65.1999V56.9852C77.636 57.5405 78.3094 58.3064 78.7529 59.2057C79.7087 61.0666 80.2559 63.1104 80.3578 65.1999H76.8012ZM82.5178 73.5013C82.1299 73.8837 81.712 74.2349 81.2685 74.5511C82.2717 72.4324 82.8439 70.1353 82.9515 67.7936H85.3283C85.0452 69.9537 84.0573 71.9598 82.5178 73.5013Z" fill="#3C3C3B"/>
</svg>
