<svg width="100" height="100" viewBox="0 0 100 100" fill="none" xmlns="http://www.w3.org/2000/svg">
<rect width="100" height="100" fill="none"/>
<path d="M64.1152 32.0143H63.4211L60.9129 20.7325C60.8846 20.4071 60.7352 20.1044 60.4941 19.8841C60.2529 19.6639 59.9378 19.5422 59.6112 19.5434H40.3889C40.0623 19.5422 39.7471 19.6639 39.506 19.8841C39.2649 20.1044 39.1154 20.4071 39.0871 20.7325L36.5876 32.0143H35.8933C34.6228 32.0143 33.4045 32.5189 32.5061 33.4173C31.6078 34.3157 31.1029 35.5342 31.1029 36.8047V63.0739C31.1052 64.3429 31.611 65.5591 32.5091 66.4556C33.4072 67.3521 34.6243 67.8555 35.8933 67.8555H36.5703L39.0871 79.2675C39.1173 79.5921 39.2674 79.8937 39.5081 80.1135C39.7488 80.3334 40.0629 80.4556 40.3889 80.4564H59.6112C59.9372 80.4556 60.2512 80.3334 60.4919 80.1135C60.7327 79.8937 60.8827 79.5921 60.9129 79.2675L63.4296 67.8555H64.1065C65.3755 67.8555 66.5928 67.3521 67.4909 66.4556C68.3891 65.5591 68.8946 64.3429 68.8969 63.0739V36.8047C68.8969 35.5357 68.3934 34.3184 67.4969 33.4202C66.6004 32.5221 65.3842 32.0166 64.1152 32.0143ZM41.5516 22.1556H58.3789L60.7568 32.0143H39.1738L41.5516 22.1556ZM58.3789 77.8442H41.5516L39.1651 67.8555H60.7742L58.3789 77.8442ZM66.25 63.0911C66.25 63.6665 66.0215 64.2184 65.6146 64.6252C65.2077 65.0321 64.6558 65.2606 64.0804 65.2606H35.8933C35.3171 65.2607 34.7645 65.0325 34.3562 64.6259C33.948 64.2193 33.7174 63.6673 33.7151 63.0911V36.8221C33.7174 36.2451 33.9478 35.6923 34.3558 35.2843C34.7638 34.8763 35.3163 34.6461 35.8933 34.6438H64.1152C64.6914 34.6461 65.2434 34.8765 65.65 35.2847C66.0566 35.693 66.2848 36.2459 66.2848 36.8221L66.25 63.0911Z" fill="#3C3C3B"/>
<path d="M41.6385 46.828C41.4215 47.0784 41.3075 47.4017 41.3194 47.7329C41.3312 48.064 41.4679 48.3783 41.7022 48.6126C41.9365 48.8468 42.251 48.9838 42.5821 48.9956C42.9133 49.0075 43.2364 48.8935 43.4868 48.6765C45.2146 46.9532 47.5553 45.9853 49.9956 45.9853C52.4359 45.9853 54.7765 46.9532 56.5043 48.6765C56.7547 48.8935 57.0781 49.0075 57.4092 48.9956C57.7403 48.9838 58.0546 48.8468 58.2889 48.6126C58.5232 48.3783 58.6601 48.064 58.6719 47.7329C58.6838 47.4017 58.5698 47.0784 58.3529 46.828C56.1329 44.6181 53.1279 43.3776 49.9956 43.3776C46.8632 43.3776 43.8584 44.6181 41.6385 46.828V46.828Z" fill="#3C3C3B"/>
<path d="M45.3181 50.8766C45.0881 51.1234 44.9629 51.4498 44.9689 51.787C44.9748 52.1243 45.1115 52.446 45.3501 52.6845C45.5886 52.923 45.9103 53.0597 46.2475 53.0657C46.5848 53.0716 46.911 52.9464 47.1577 52.7165C47.9252 51.9889 48.9425 51.5834 50 51.5834C51.0575 51.5834 52.0747 51.9889 52.8421 52.7165C53.0888 52.9464 53.4153 53.0716 53.7525 53.0657C54.0897 53.0597 54.4115 52.923 54.65 52.6845C54.8885 52.446 55.0252 52.1243 55.0311 51.787C55.0371 51.4498 54.9119 51.1234 54.682 50.8766C53.422 49.6699 51.7447 48.9965 50 48.9965C48.2554 48.9965 46.5781 49.6699 45.3181 50.8766V50.8766Z" fill="#3C3C3B"/>
<path d="M50.0042 53.8575C49.7429 53.8558 49.4871 53.9316 49.269 54.0755C49.0509 54.2194 48.8805 54.4249 48.7794 54.6658C48.6782 54.9067 48.6508 55.1721 48.7008 55.4285C48.7507 55.685 48.8757 55.921 49.0599 56.1063C49.244 56.2917 49.479 56.4181 49.7351 56.4697C49.9912 56.5213 50.2567 56.4957 50.4983 56.3962C50.7398 56.2966 50.9464 56.1274 51.0917 55.9103C51.2371 55.6932 51.3146 55.4379 51.3146 55.1766C51.3146 54.8283 51.1769 54.494 50.9314 54.2469C50.6858 53.9998 50.3525 53.8598 50.0042 53.8575V53.8575Z" fill="#3C3C3B"/>
</svg>
