<svg width="100" height="100" viewBox="0 0 100 100" fill="none" xmlns="http://www.w3.org/2000/svg">
<rect width="100" height="100" fill="none"/>
<path d="M83.3614 65.0352C83.3614 62.4136 82.32 59.8994 80.4663 58.0457C78.6126 56.192 76.0984 55.1507 73.4769 55.1507C70.8553 55.1507 68.3411 56.192 66.4874 58.0457C64.6337 59.8994 63.5922 62.4136 63.5922 65.0352C61.4816 65.1713 59.5077 66.126 58.0907 67.6961C56.6737 69.2661 55.9255 71.3274 56.0059 73.4408C56.0862 75.5542 56.9887 77.5528 58.5208 79.0107C60.0529 80.4687 62.0937 81.2707 64.2085 81.2462H82.7626C84.8774 81.2707 86.9182 80.4687 88.4503 79.0107C89.9824 77.5528 90.8847 75.5542 90.965 73.4408C91.0454 71.3274 90.2974 69.2661 88.8804 67.6961C87.4634 66.126 85.4893 65.1713 83.3787 65.0352H83.3614ZM82.7279 78.6427H64.2085C62.747 78.6427 61.3452 78.0621 60.3117 77.0287C59.2783 75.9952 58.6977 74.5936 58.6977 73.1321C58.6977 71.6706 59.2783 70.2688 60.3117 69.2353C61.3452 68.2019 62.747 67.6213 64.2085 67.6213C64.4255 67.6213 64.6337 67.6213 64.842 67.6213C65.0398 67.6445 65.2403 67.6221 65.428 67.5556C65.6158 67.4891 65.7857 67.3803 65.9249 67.2378C66.064 67.0953 66.1688 66.9229 66.2308 66.7336C66.2928 66.5443 66.3104 66.3433 66.2825 66.146C66.2236 65.7932 66.1916 65.4363 66.187 65.0786C66.187 63.1476 66.9542 61.2956 68.3197 59.9301C69.6851 58.5646 71.5371 57.7974 73.4682 57.7974C75.3992 57.7974 77.2512 58.5646 78.6167 59.9301C79.9822 61.2956 80.7492 63.1476 80.7492 65.0786C80.7484 65.4362 80.7195 65.7931 80.6625 66.146C80.6331 66.3428 80.6493 66.5435 80.7102 66.7329C80.7711 66.9223 80.8748 67.0953 81.0134 67.238C81.1519 67.3808 81.3215 67.4895 81.509 67.556C81.6964 67.6225 81.8968 67.6449 82.0944 67.6213C82.3026 67.6213 82.5109 67.6213 82.7279 67.6213C84.1894 67.6213 85.5912 68.2019 86.6246 69.2353C87.6581 70.2688 88.2387 71.6706 88.2387 73.1321C88.2387 74.5936 87.6581 75.9952 86.6246 77.0287C85.5912 78.0621 84.1894 78.6427 82.7279 78.6427Z" fill="#3C3C3B"/>
<path fill-rule="evenodd" clip-rule="evenodd" d="M78.7564 30.3167C79.4878 31.0481 79.9006 32.0386 79.9052 33.073V40.8834C79.2539 41.594 78.8927 42.523 78.8927 43.4869C78.8927 44.4509 79.2539 45.3798 79.9052 46.0904V53.1177C79.0737 52.7565 78.2008 52.4789 77.3017 52.2906V46.0904C77.3017 45.7444 77.1649 45.4124 76.921 45.1669C76.6771 44.9214 76.346 44.7823 76 44.78H24C23.6539 44.7823 23.3228 44.9214 23.079 45.1669C22.8351 45.4124 22.6982 45.7444 22.6982 46.0904V53.9009C22.6982 54.2461 22.8355 54.5773 23.0796 54.8215C23.3237 55.0656 23.6547 55.2026 24 55.2026H64.7675C64.676 55.2801 64.5868 55.359 64.5 55.4391C63.6638 56.211 62.9838 56.9881 62.4532 57.8061H24C23.6547 57.8061 23.3237 57.9434 23.0796 58.1875C22.8355 58.4316 22.6982 58.7626 22.6982 59.1079V66.9183C22.6982 67.2636 22.8355 67.5948 23.0796 67.8389C23.3237 68.083 23.6547 68.2201 24 68.2201H53.6092C53.0571 69.0283 52.6396 69.9061 52.3684 70.8236H24C22.9648 70.819 21.9733 70.4064 21.2406 69.6752C20.5078 68.9441 20.0929 67.9534 20.0861 66.9183V59.1079C20.0861 59.1079 21.1151 58.0087 21.11 56.5044C21.105 55 20.0861 53.9009 20.0861 53.9009V46.0904C20.7411 45.3817 21.105 44.5787 21.105 43.4869C21.105 42.3951 20.7411 41.5922 20.0861 40.8834V33.073C20.0906 32.0371 20.5048 31.0452 21.238 30.3135C21.9713 29.5819 22.9641 29.17 24 29.1677H76C77.0343 29.1723 78.0251 29.5853 78.7564 30.3167ZM76.9203 41.804C77.1645 41.5599 77.3017 41.2287 77.3017 40.8834V33.073C77.3017 32.7277 77.1645 32.3967 76.9203 32.1526C76.6762 31.9085 76.3452 31.7712 76 31.7712H24C23.6547 31.7712 23.3237 31.9085 23.0796 32.1526C22.8355 32.3967 22.6982 32.7277 22.6982 33.073V40.8834C22.6982 41.2287 22.8355 41.5599 23.0796 41.804C23.3237 42.0481 23.6547 42.1852 24 42.1852H76C76.3452 42.1852 76.6762 42.0481 76.9203 41.804Z" fill="#3C3C3B"/>
<path d="M29.1686 34.8086C28.5934 34.8086 28.0418 35.0372 27.6351 35.4439C27.2284 35.8506 27 36.402 27 36.9771C27 37.5523 27.2284 38.1039 27.6351 38.5106C28.0418 38.9173 28.5934 39.1457 29.1686 39.1457C29.7437 39.1457 30.2953 38.9173 30.702 38.5106C31.1087 38.1039 31.3371 37.5523 31.3371 36.9771C31.3371 36.402 31.1087 35.8506 30.702 35.4439C30.2953 35.0372 29.7437 34.8086 29.1686 34.8086Z" fill="#3C3C3B"/>
<path d="M35.6946 34.8086C35.1195 34.8086 34.5678 35.0372 34.1611 35.4439C33.7545 35.8506 33.526 36.402 33.526 36.9771C33.526 37.5523 33.7545 38.1039 34.1611 38.5106C34.5678 38.9173 35.1195 39.1457 35.6946 39.1457C36.2697 39.1457 36.8214 38.9173 37.2281 38.5106C37.6348 38.1039 37.8632 37.5523 37.8632 36.9771C37.8632 36.402 37.6348 35.8506 37.2281 35.4439C36.8214 35.0372 36.2697 34.8086 35.6946 34.8086Z" fill="#3C3C3B"/>
<path d="M29.1686 47.8347C28.5934 47.8347 28.0418 48.0634 27.6351 48.47C27.2284 48.8767 27 49.4281 27 50.0033C27 50.5784 27.2284 51.1301 27.6351 51.5367C28.0418 51.9434 28.5934 52.1719 29.1686 52.1719C29.7437 52.1719 30.2953 51.9434 30.702 51.5367C31.1087 51.1301 31.3371 50.5784 31.3371 50.0033C31.3371 49.4281 31.1087 48.8767 30.702 48.47C30.2953 48.0634 29.7437 47.8347 29.1686 47.8347Z" fill="#3C3C3B"/>
<path d="M35.6946 47.8347C35.1195 47.8347 34.5678 48.0634 34.1611 48.47C33.7545 48.8767 33.526 49.4281 33.526 50.0033C33.526 50.5784 33.7545 51.1301 34.1611 51.5367C34.5678 51.9434 35.1195 52.1719 35.6946 52.1719C36.2697 52.1719 36.8214 51.9434 37.2281 51.5367C37.6348 51.1301 37.8632 50.5784 37.8632 50.0033C37.8632 49.4281 37.6348 48.8767 37.2281 48.47C36.8214 48.0634 36.2697 47.8347 35.6946 47.8347Z" fill="#3C3C3B"/>
<path d="M29.1686 60.8522C28.5934 60.8522 28.0418 61.0808 27.6351 61.4875C27.2284 61.8942 27 62.4456 27 63.0208C26.9989 63.3059 27.0543 63.5884 27.1629 63.852C27.2714 64.1156 27.431 64.3552 27.6326 64.5568C27.8342 64.7584 28.0738 64.9181 28.3374 65.0267C28.601 65.1353 28.8835 65.1905 29.1686 65.1894V65.1894C29.4537 65.1905 29.7362 65.1353 29.9998 65.0267C30.2634 64.9181 30.503 64.7584 30.7046 64.5568C30.9062 64.3552 31.0659 64.1156 31.1745 63.852C31.2831 63.5884 31.3383 63.3059 31.3372 63.0208C31.3372 62.4456 31.1087 61.8942 30.702 61.4875C30.2954 61.0808 29.7437 60.8522 29.1686 60.8522Z" fill="#3C3C3B"/>
<path d="M35.6946 60.8522C35.1195 60.8522 34.5678 61.0808 34.1612 61.4875C33.7545 61.8942 33.526 62.4456 33.526 63.0208C33.5249 63.3059 33.5801 63.5884 33.6887 63.852C33.7973 64.1156 33.957 64.3552 34.1586 64.5568C34.3602 64.7584 34.5998 64.9181 34.8634 65.0267C35.127 65.1353 35.4095 65.1905 35.6946 65.1894V65.1894C35.9797 65.1905 36.2622 65.1353 36.5258 65.0267C36.7895 64.9181 37.029 64.7584 37.2306 64.5568C37.4322 64.3552 37.592 64.1156 37.7005 63.852C37.8091 63.5884 37.8643 63.3059 37.8632 63.0208C37.8632 62.4456 37.6348 61.8942 37.2281 61.4875C36.8214 61.0808 36.2698 60.8522 35.6946 60.8522Z" fill="#3C3C3B"/>
</svg>
