<svg width="100" height="100" viewBox="0 0 100 100" fill="none" xmlns="http://www.w3.org/2000/svg">
<rect width="100" height="100" fill="none"/>
<path d="M51.6003 19.0215H48.6127V22.9713H51.6003V19.0215Z" fill="#39373A"/>
<path d="M61.2127 28.5943H57.2466V31.5783H61.2127V28.5943Z" fill="#39373A"/>
<path d="M42.9665 28.5943H39.0004V31.5783H42.9665V28.5943Z" fill="#39373A"/>
<path d="M56.8662 21.2809L54.0612 24.0734L56.1733 26.1776L58.9783 23.3851L56.8662 21.2809Z" fill="#39373A"/>
<path d="M43.3065 21.2093L41.1939 23.3132L43.9985 26.1062L46.1111 24.0023L43.3065 21.2093Z" fill="#39373A"/>
<path d="M55.887 38.4861H51.5571V34.4328L51.7303 34.3724C52.8316 33.9812 53.7589 33.2153 54.3484 32.2096C54.938 31.2039 55.152 30.023 54.9527 28.8756C54.7533 27.7281 54.1534 26.6877 53.2589 25.9378C52.3643 25.1878 51.2326 24.7764 50.0632 24.7764C48.8939 24.7764 47.7621 25.1878 46.8675 25.9378C45.973 26.6877 45.3731 27.7281 45.1738 28.8756C44.9744 30.023 45.1885 31.2039 45.778 32.2096C46.3676 33.2153 47.2948 33.9812 48.3962 34.3724L48.5694 34.4328V38.4861H44.2828C40.4261 38.4643 36.7032 39.893 33.8583 42.4864C31.0134 45.0797 29.2561 48.6467 28.9377 52.4744L27.5867 66.3766C27.5471 66.802 27.5967 67.2311 27.7326 67.6364C27.8685 68.0416 28.0875 68.4142 28.3759 68.7306C28.6642 69.0469 29.0155 69.3 29.4074 69.4738C29.7993 69.6476 30.2233 69.7382 30.6523 69.74H69.4742C69.9034 69.7389 70.3277 69.6486 70.7199 69.4749C71.1121 69.3011 71.4635 69.0478 71.7517 68.731C72.0427 68.4163 72.2633 68.0439 72.3991 67.638C72.535 67.2322 72.5829 66.8022 72.5397 66.3766L71.1888 52.4917C70.8731 48.669 69.1232 45.105 66.2874 42.5095C63.4517 39.914 59.7384 38.4776 55.887 38.4861ZM48.1451 29.7068C48.1451 29.3196 48.2604 28.9411 48.4764 28.6191C48.6924 28.2972 48.9994 28.0464 49.3586 27.8982C49.7178 27.75 50.113 27.7113 50.4943 27.7868C50.8757 27.8623 51.226 28.0487 51.5009 28.3225C51.7758 28.5962 51.963 28.9451 52.0389 29.3249C52.1147 29.7046 52.0758 30.0982 51.927 30.456C51.7782 30.8137 51.5262 31.1195 51.203 31.3346C50.8797 31.5497 50.4997 31.6645 50.1109 31.6645C49.5895 31.6645 49.0895 31.4583 48.7208 31.0912C48.3522 30.724 48.1451 30.226 48.1451 29.7068V29.7068ZM30.6003 66.7906L31.9599 52.785C32.215 49.6983 33.6302 46.8211 35.9227 44.7283C38.2152 42.6355 41.2162 41.4812 44.3261 41.4959H55.887C58.9996 41.4815 62.0029 42.6382 64.2959 44.7346C66.5888 46.831 68.0021 49.7125 68.2531 52.8023L69.6127 66.7906H30.6003Z" fill="#39373A"/>
<path d="M42.828 52.2159C41.716 52.2159 40.6291 52.5444 39.7047 53.1598C38.7802 53.7752 38.0599 54.6497 37.6347 55.6729C37.2096 56.6961 37.0988 57.8221 37.3164 58.908C37.534 59.994 38.0701 60.9912 38.857 61.7736C39.6438 62.556 40.646 63.0885 41.7368 63.3035C42.8276 63.5184 43.9579 63.4063 44.9847 62.9813C46.0115 62.5564 46.8887 61.8378 47.5052 60.9162C48.1218 59.9947 48.4499 58.9117 48.4482 57.8043C48.4459 56.3214 47.8527 54.8999 46.799 53.8521C45.7452 52.8043 44.317 52.2159 42.828 52.2159V52.2159ZM42.828 60.771C42.2384 60.7727 41.6616 60.6001 41.1706 60.2751C40.6796 59.9502 40.2964 59.4874 40.0696 58.9455C39.8428 58.4035 39.7826 57.8068 39.8965 57.2308C40.0105 56.6547 40.2935 56.1253 40.7098 55.7095C41.1261 55.2938 41.6568 55.0103 42.2349 54.8951C42.813 54.78 43.4125 54.8382 43.9573 55.0625C44.5022 55.2868 44.9679 55.667 45.2956 56.1551C45.6233 56.6431 45.7983 57.2172 45.7983 57.8043C45.7937 58.5866 45.479 59.3355 44.9227 59.8879C44.3664 60.4403 43.6136 60.7514 42.828 60.7537V60.771Z" fill="#39373A"/>
<path d="M57.3851 52.2159C56.2732 52.2159 55.1862 52.5444 54.2618 53.1598C53.3373 53.7752 52.617 54.6497 52.1919 55.6729C51.7668 56.6961 51.656 57.8221 51.8735 58.908C52.0911 59.994 52.6272 60.9912 53.4141 61.7736C54.2009 62.556 55.2032 63.0885 56.294 63.3035C57.3847 63.5184 58.515 63.4063 59.5419 62.9813C60.5687 62.5564 61.4459 61.8378 62.0624 60.9162C62.6789 59.9947 63.007 58.9117 63.0053 57.8043C63.0007 56.3221 62.4069 54.9019 61.3536 53.8546C60.3004 52.8073 58.8735 52.2182 57.3851 52.2159ZM57.3851 60.771C56.7959 60.771 56.22 60.5969 55.7301 60.2709C55.2402 59.9449 54.8583 59.4817 54.6329 58.9396C54.4074 58.3975 54.3484 57.801 54.4634 57.2255C54.5783 56.65 54.862 56.1213 55.2787 55.7064C55.6953 55.2915 56.2261 55.009 56.804 54.8945C57.3818 54.78 57.9808 54.8388 58.5251 55.0634C59.0695 55.2879 59.5347 55.6682 59.8621 56.1561C60.1894 56.644 60.3641 57.2175 60.3641 57.8043C60.3595 58.5881 60.0436 59.3382 59.4855 59.8909C58.9273 60.4435 58.1722 60.7537 57.3851 60.7537V60.771Z" fill="#39373A"/>
<path d="M60.5027 72.1116H39.7191V81.0204H60.5027V72.1116ZM57.9047 78.4331H42.3171V74.6988H57.9047V78.4331Z" fill="#39373A"/>
</svg>
