<svg width="100" height="100" viewBox="0 0 100 100" fill="none" xmlns="http://www.w3.org/2000/svg">
<rect width="100" height="100" fill="none"/>
<path d="M60.25 18.7333C59.9782 18.4799 59.6215 18.3374 59.25 18.3334H31.0701C29.1993 18.336 27.4055 19.079 26.0808 20.4C24.7561 21.721 24.0079 23.5126 24 25.3834V75.0834C24.0131 76.9525 24.7628 78.741 26.0864 80.0609C27.41 81.3808 29.2009 82.1256 31.0701 82.1334H67.9299C69.7991 82.1256 71.59 81.3808 72.9136 80.0609C74.2372 78.741 74.9869 76.9525 75 75.0834V32.9933C75 32.7858 74.9562 32.5807 74.8718 32.3912C74.7874 32.2017 74.6642 32.0322 74.51 31.8934L60.25 18.7333ZM60.74 23.2633L60.9099 23.4135L69.6299 31.4135H61.97C61.6565 31.4132 61.3553 31.2912 61.1299 31.0734C61.0114 30.9628 60.9161 30.8298 60.8491 30.6823C60.7822 30.5347 60.7451 30.3752 60.74 30.2133V23.2633ZM71.98 75.0834C71.9721 76.1585 71.5402 77.187 70.7781 77.9454C70.0159 78.7038 68.9851 79.1308 67.9099 79.1334H31.05C29.9749 79.1308 28.9443 78.7038 28.1821 77.9454C27.42 77.187 26.9879 76.1585 26.98 75.0834V25.3834C26.9879 24.3083 27.42 23.2798 28.1821 22.5214C28.9443 21.763 29.9749 21.336 31.05 21.3334H57.74V30.2133C57.74 31.3378 58.1868 32.4164 58.9819 33.2115C59.7771 34.0067 60.8555 34.4535 61.98 34.4535H71.98V75.0834Z" fill="#3C3C3B"/>
</svg>
