<svg width="100" height="100" viewBox="0 0 100 100" fill="none" xmlns="http://www.w3.org/2000/svg">
<rect width="100" height="100" fill="none"/>
<path d="M60.25 18.7333C59.9782 18.4799 59.6215 18.3374 59.25 18.3334H31.0701C29.1993 18.336 27.4055 19.079 26.0808 20.4C24.7561 21.721 24.0079 23.5126 24 25.3834V75.0834C24.0131 76.9525 24.7628 78.741 26.0864 80.0609C27.41 81.3808 29.2009 82.1256 31.0701 82.1334H67.9299C69.7991 82.1256 71.59 81.3808 72.9136 80.0609C74.2372 78.741 74.9869 76.9525 75 75.0834V32.9933C75 32.7858 74.9562 32.5807 74.8718 32.3912C74.7874 32.2017 74.6642 32.0322 74.51 31.8934L60.25 18.7333ZM60.74 23.2633L60.9099 23.4135L69.6299 31.4135H61.97C61.6565 31.4132 61.3553 31.2912 61.1299 31.0734C61.0114 30.9628 60.9161 30.8298 60.8491 30.6823C60.7822 30.5347 60.7451 30.3752 60.74 30.2133V23.2633ZM71.98 75.0834C71.9721 76.1585 71.5402 77.187 70.7781 77.9454C70.0159 78.7038 68.9851 79.1308 67.9099 79.1334H31.05C29.9749 79.1308 28.9443 78.7038 28.1821 77.9454C27.42 77.187 26.9879 76.1585 26.98 75.0834V25.3834C26.9879 24.3083 27.42 23.2798 28.1821 22.5214C28.9443 21.763 29.9749 21.336 31.05 21.3334H57.74V30.2133C57.74 31.3378 58.1868 32.4164 58.9819 33.2115C59.7771 34.0067 60.8555 34.4535 61.98 34.4535H71.98V75.0834Z" fill="#3C3C3B"/>
<path d="M52.6699 41.4236C52.2907 41.3114 51.8825 41.3535 51.5342 41.5408C51.1858 41.728 50.9256 42.0453 50.81 42.4236L45.32 61.6535C45.2106 62.0328 45.2537 62.4397 45.4407 62.7873C45.6276 63.135 45.9433 63.3956 46.32 63.5134C46.453 63.5536 46.5911 63.5739 46.73 63.5735C47.055 63.5696 47.3702 63.4618 47.6294 63.2656C47.8885 63.0694 48.078 62.7952 48.1699 62.4834L53.6699 43.2434C53.7764 42.8655 53.7316 42.4611 53.5449 42.1157C53.3582 41.7703 53.0444 41.5114 52.6699 41.3935V41.4236Z" fill="#3C3C3B"/>
<path d="M41.7 58.1535L36.8999 52.4833L41.68 46.8334C41.9389 46.6482 42.1323 46.3855 42.232 46.0831C42.3317 45.7808 42.3324 45.4546 42.2344 45.1518C42.1364 44.8489 41.9447 44.585 41.6868 44.3983C41.4289 44.2117 41.1184 44.1119 40.8001 44.1134C40.4917 44.1185 40.1932 44.2238 39.95 44.4135L34.01 51.2633C33.8167 51.4023 33.6597 51.5857 33.5518 51.798C33.4439 52.0103 33.3883 52.2452 33.3899 52.4833C33.3884 52.7164 33.4419 52.9466 33.5462 53.1552C33.6504 53.3637 33.8026 53.5449 33.99 53.6835L39.99 60.5734C40.2447 60.7532 40.5484 60.8509 40.8601 60.8534C41.099 60.8531 41.3342 60.7958 41.5464 60.6862C41.7586 60.5766 41.9416 60.4178 42.0801 60.2233C42.1921 60.0628 42.2712 59.8818 42.3128 59.6906C42.3543 59.4993 42.3574 59.3015 42.3221 59.109C42.2867 58.9165 42.2135 58.733 42.1067 58.569C41.9999 58.4049 41.8617 58.2637 41.7 58.1535V58.1535Z" fill="#3C3C3B"/>
<path d="M65.0701 51.2834L59.0701 44.3936C58.746 44.1617 58.3434 44.0672 57.95 44.1309C57.5566 44.1945 57.2044 44.4111 56.97 44.7334C56.7413 45.0523 56.6477 45.4488 56.7095 45.8364C56.7713 46.224 56.9835 46.5714 57.3001 46.8035L62.0901 52.4834L57.3201 58.1335C57.0619 58.3183 56.8688 58.58 56.7688 58.8813C56.6689 59.1827 56.6672 59.5081 56.764 59.8105C56.8607 60.1129 57.0509 60.3768 57.3072 60.5642C57.5634 60.7516 57.8725 60.8529 58.19 60.8535C58.5143 60.8521 58.8298 60.7469 59.0901 60.5535L65.0301 53.7036C65.2222 53.5634 65.3784 53.3797 65.4861 53.1677C65.5939 52.9557 65.65 52.7212 65.6499 52.4834C65.6554 52.2517 65.6058 52.0221 65.5049 51.8135C65.4041 51.6048 65.2551 51.4231 65.0701 51.2834V51.2834Z" fill="#3C3C3B"/>
</svg>
